<svg width="20" height="21" viewBox="0 0 20 21" fill="none" xmlns="http://www.w3.org/2000/svg">
<g clip-path="url(#clip0)">
<path d="M16.3005 0.260742H14.5786V6.0881C14.5786 6.49752 14.1647 6.69995 13.844 6.18591L12.7067 4.36628L11.5694 6.18591C11.2464 6.69768 10.8348 6.49752 10.8348 6.0881V0.260742H5.06198C3.6665 0.264495 2.53725 1.39682 2.53725 2.7923V17.736C2.541 19.1288 3.66917 20.257 5.06198 20.2607H16.3027C16.6101 20.2602 16.9048 20.1375 17.1216 19.9196C17.3395 19.7027 17.4622 19.4081 17.4628 19.1007V1.42303C17.4615 0.781611 16.9419 0.261993 16.3005 0.260742ZM16.5165 17.2584L5.54873 17.272C5.30968 17.2885 5.11947 17.4788 5.10298 17.7178C5.08473 17.9822 5.28432 18.2113 5.54873 18.2296H16.5165L16.5143 19.1121C16.5144 19.1647 16.494 19.2153 16.4574 19.2531C16.4196 19.2897 16.369 19.3101 16.3164 19.31H5.06198C4.19834 19.31 3.49824 18.6099 3.49824 17.7462C3.49824 16.8826 4.19834 16.1825 5.06198 16.1825H16.3164C16.4264 16.1837 16.5153 16.2726 16.5165 16.3827V17.2584Z" fill="#EF8BBD"/>
</g>
<defs>
<clipPath id="clip0">
<rect width="20" height="20" fill="white" transform="translate(0 0.260742)"/>
</clipPath>
</defs>
</svg>
