<svg width="20" height="20" viewBox="0 0 20 20" fill="none" xmlns="http://www.w3.org/2000/svg">
<g clip-path="url(#clip0)">
<path d="M19.69 4.97992C19.5222 4.75572 19.2858 4.58371 18.981 4.46357C18.9973 4.74394 18.9774 4.97214 18.9213 5.14844L15.3184 17.002C15.2542 17.2101 15.114 17.3762 14.8981 17.5004C14.6818 17.6246 14.4577 17.6866 14.2255 17.6866H3.14058C2.17981 17.6866 1.60343 17.4068 1.41119 16.846C1.33114 16.6297 1.33518 16.4577 1.42331 16.3296C1.51131 16.2094 1.66342 16.1492 1.87971 16.1492H12.3162C13.0608 16.1492 13.5752 16.0111 13.8595 15.7348C14.144 15.4586 14.4301 14.844 14.7182 13.8913L18.0088 3.01034C18.1849 2.41789 18.1129 1.89742 17.7926 1.44917C17.4722 1.00092 17.016 0.776672 16.4234 0.776672H7.28413C7.18006 0.776672 6.97583 0.812596 6.67158 0.884696L6.68352 0.848562C6.45931 0.800608 6.26914 0.778649 6.11303 0.782477C5.95697 0.786642 5.81281 0.832619 5.68073 0.92083C5.54864 1.00892 5.44247 1.10289 5.36246 1.20292C5.28241 1.30304 5.20426 1.43117 5.12824 1.58723C5.05232 1.7435 4.98817 1.88766 4.93613 2.01974C4.8841 2.15183 4.82399 2.29203 4.75605 2.44031C4.68791 2.58843 4.62203 2.7105 4.55792 2.80653C4.50984 2.8706 4.44191 2.95465 4.35374 3.05876C4.26578 3.16283 4.19368 3.25495 4.13765 3.335C4.08166 3.41505 4.04553 3.48711 4.02963 3.55122C4.01373 3.62319 4.02163 3.72928 4.05365 3.86948C4.08562 4.00948 4.09769 4.11149 4.08957 4.17559C4.0576 4.47981 3.94747 4.86605 3.7594 5.33458C3.57133 5.80302 3.401 6.14139 3.24894 6.34944C3.21693 6.38941 3.12893 6.47951 2.98477 6.61967C2.84061 6.75975 2.75257 6.88174 2.72064 6.98581C2.68859 7.02581 2.68657 7.13796 2.71458 7.32208C2.7426 7.50633 2.75274 7.63433 2.74466 7.70639C2.71248 7.97868 2.61258 8.33892 2.44436 8.78734C2.27614 9.23563 2.10809 9.604 1.93987 9.89219C1.91593 9.94018 1.84796 10.0322 1.73573 10.1684C1.62375 10.3046 1.55556 10.4167 1.53158 10.5045C1.5156 10.5686 1.5177 10.6807 1.53764 10.8408C1.55754 11.0009 1.55556 11.121 1.53158 11.201C1.4676 11.505 1.34746 11.8715 1.17129 12.2999C0.995167 12.7281 0.815002 13.0948 0.630714 13.3987C0.582844 13.4789 0.516633 13.5731 0.432671 13.681C0.348582 13.7889 0.282582 13.8831 0.234501 13.9631C0.186505 14.0432 0.154451 14.1272 0.138424 14.2154C0.130432 14.2634 0.142547 14.3415 0.174558 14.4497C0.206528 14.5577 0.218601 14.6437 0.210482 14.708C0.202406 14.82 0.186505 14.9683 0.162486 15.1525C0.138424 15.3364 0.126352 15.4444 0.126352 15.4764C-0.0497755 15.9569 -0.0418672 16.4654 0.150413 17.002C0.374621 17.6262 0.772852 18.1529 1.34532 18.5812C1.91783 19.0096 2.51221 19.2235 3.1288 19.2235H14.2139C14.7341 19.2235 15.2245 19.0493 15.6849 18.7013C16.1453 18.3529 16.4517 17.9228 16.6035 17.41L19.9061 6.52932C20.0824 5.95268 20.0105 5.43629 19.69 4.97992ZM6.91173 5.00394L7.16399 4.23524C7.19596 4.13117 7.26196 4.04111 7.36208 3.96506C7.46219 3.88913 7.56433 3.85097 7.6684 3.85097H14.9705C15.0825 3.85097 15.1625 3.88896 15.2106 3.96506C15.2585 4.04115 15.2667 4.13117 15.2348 4.23524L14.9823 5.00394C14.9501 5.10806 14.8844 5.19791 14.784 5.27417C14.6838 5.3501 14.5819 5.38808 14.4779 5.38808H7.17602C7.06388 5.38808 6.98387 5.35022 6.93579 5.27417C6.88775 5.19791 6.87976 5.10806 6.91173 5.00394ZM5.91499 8.07846L6.16721 7.30988C6.19918 7.20581 6.26527 7.11575 6.3653 7.03969C6.46541 6.9636 6.56742 6.92561 6.67162 6.92561H13.9734C14.0856 6.92561 14.1657 6.96347 14.2137 7.03969C14.2617 7.11579 14.2697 7.20581 14.2376 7.30988L13.9854 8.07846C13.9534 8.18253 13.8874 8.27267 13.7873 8.34864C13.6871 8.42474 13.5852 8.46272 13.481 8.46272H6.17916C6.0671 8.46272 5.98705 8.42486 5.93905 8.34864C5.89093 8.27267 5.88298 8.18253 5.91499 8.07846Z" fill="#EF8BBD"/>
</g>
<defs>
<clipPath id="clip0">
<rect width="20" height="20" fill="white"/>
</clipPath>
</defs>
</svg>
