<svg width="48" height="48" viewBox="0 0 48 48" fill="none" xmlns="http://www.w3.org/2000/svg">
<g clip-path="url(#clip0)">
<path d="M46 39.6467H-18V44.893H46V39.6467Z" fill="#EDC49E"/>
<path d="M19.0708 3H8.64243V39.6461H19.0708V3Z" fill="#A183E2"/>
<path d="M19.0708 29.8242H8.64243V39.646H19.0708V29.8242Z" fill="#9762E2"/>
<path d="M12.4776 8.41547C12.1992 8.41547 11.9321 8.30486 11.7353 8.10797C11.5384 7.91108 11.4278 7.64405 11.4278 7.36561C11.4278 7.08717 11.5384 6.82013 11.7353 6.62325C11.9321 6.42636 12.1992 6.31575 12.4776 6.31575H15.2373C15.5157 6.31575 15.7827 6.42636 15.9796 6.62325C16.1765 6.82013 16.2871 7.08717 16.2871 7.36561C16.2871 7.64405 16.1765 7.91108 15.9796 8.10797C15.7827 8.30486 15.5157 8.41547 15.2373 8.41547H12.4776Z" fill="#E7EFFA"/>
<path d="M12.4776 35.0675C12.1992 35.0675 11.9321 34.9569 11.7353 34.76C11.5384 34.5631 11.4278 34.2961 11.4278 34.0176C11.4278 33.7392 11.5384 33.4721 11.7353 33.2753C11.9321 33.0784 12.1992 32.9678 12.4776 32.9678H15.2373C15.5157 32.9678 15.7827 33.0784 15.9796 33.2753C16.1765 33.4721 16.2871 33.7392 16.2871 34.0176C16.2871 34.2961 16.1765 34.5631 15.9796 34.76C15.7827 34.9569 15.5157 35.0675 15.2373 35.0675H12.4776Z" fill="#DCB6F5"/>
<path d="M8.64246 7.84435H-0.407344V39.6461H8.64246V7.84435Z" fill="#EF8BBD"/>
<path d="M8.64246 30.5963H-0.407344V34.7609H8.64246V30.5963Z" fill="#EEB6A8"/>
<path d="M2.92095 12.6827C2.64251 12.6827 2.37548 12.5721 2.17859 12.3752C1.9817 12.1783 1.87109 11.9113 1.87109 11.6329C1.87109 11.3544 1.9817 11.0874 2.17859 10.8905C2.37548 10.6936 2.64251 10.583 2.92095 10.583H5.31403C5.59247 10.583 5.85951 10.6936 6.05639 10.8905C6.25328 11.0874 6.36389 11.3544 6.36389 11.6329C6.36389 11.9113 6.25328 12.1783 6.05639 12.3752C5.85951 12.5721 5.59247 12.6827 5.31403 12.6827H2.92095Z" fill="#FEF2A8"/>
<path d="M29.4991 6.5995H19.0707V39.6461H29.4991V6.5995Z" fill="#FFA585"/>
<path d="M22.906 12.015C22.6275 12.015 22.3605 11.9044 22.1636 11.7075C21.9667 11.5106 21.8561 11.2436 21.8561 10.9651C21.8561 10.6867 21.9667 10.4197 22.1636 10.2228C22.3605 10.0259 22.6275 9.91528 22.906 9.91528H25.6656C25.944 9.91528 26.2111 10.0259 26.408 10.2228C26.6048 10.4197 26.7155 10.6867 26.7155 10.9651C26.7155 11.2436 26.6048 11.5106 26.408 11.7075C26.2111 11.9044 25.944 12.015 25.6656 12.015H22.906Z" fill="#EF7C85"/>
<path d="M22.906 15.7675C22.6275 15.7675 22.3605 15.6569 22.1636 15.46C21.9667 15.2631 21.8561 14.9961 21.8561 14.7176C21.8561 14.4392 21.9667 14.1722 22.1636 13.9753C22.3605 13.7784 22.6275 13.6678 22.906 13.6678H25.6656C25.944 13.6678 26.2111 13.7784 26.408 13.9753C26.6048 14.1722 26.7155 14.4392 26.7155 14.7176C26.7155 14.9961 26.6048 15.2631 26.408 15.46C26.2111 15.6569 25.944 15.7675 25.6656 15.7675H22.906Z" fill="#EF7C85"/>
<path d="M29.4991 31.7614H19.0707V33.8611H29.4991V31.7614Z" fill="#EF7C85"/>
<path d="M42.5479 38.2119L38.0538 11.193L29.5277 12.6111L34.0217 39.63L42.5479 38.2119Z" fill="#B2E7F1"/>
<path d="M42.5563 38.2109L41.6267 32.6222L33.1005 34.0403L34.0301 39.629L42.5563 38.2109Z" fill="#95CDE6"/>
<path d="M36.4046 28.8043C36.1563 28.804 35.9161 28.7156 35.7267 28.555C35.5374 28.3943 35.4111 28.1716 35.3704 27.9267L33.459 16.4634C33.434 16.3264 33.4364 16.1858 33.4662 16.0497C33.4961 15.9137 33.5526 15.785 33.6327 15.671C33.7128 15.557 33.8147 15.4602 33.9326 15.386C34.0504 15.3118 34.1819 15.2618 34.3193 15.2389C34.4566 15.216 34.5972 15.2207 34.7327 15.2527C34.8683 15.2847 34.9961 15.3433 35.1088 15.4251C35.2215 15.507 35.3167 15.6104 35.389 15.7295C35.4613 15.8485 35.5092 15.9807 35.5299 16.1184L37.4413 27.5817C37.464 27.7177 37.4596 27.8568 37.4285 27.9911C37.3974 28.1254 37.3401 28.2523 37.2599 28.3644C37.1797 28.4766 37.0782 28.5718 36.9612 28.6447C36.8442 28.7176 36.714 28.7668 36.578 28.7893C36.5207 28.799 36.4627 28.8041 36.4046 28.8043Z" fill="#95CDE6"/>
</g>
<defs>
<clipPath id="clip0">
<rect width="48" height="48" fill="white"/>
</clipPath>
</defs>
</svg>
