<svg width="48" height="48" viewBox="0 0 48 48" fill="none" xmlns="http://www.w3.org/2000/svg">
<path d="M24 48C37.2548 48 48 37.2548 48 24C48 10.7452 37.2548 0 24 0C10.7452 0 0 10.7452 0 24C0 37.2548 10.7452 48 24 48Z" fill="#FFA585"/>
<path d="M24 0C23.5715 0 23.1458 0.0117188 22.7229 0.0338437C35.384 0.697781 45.4459 11.1736 45.4459 24C45.4459 36.8264 35.384 47.3022 22.7229 47.9662C23.1458 47.9883 23.5715 48 24 48C37.2548 48 48 37.2548 48 24C48 10.7452 37.2548 0 24 0Z" fill="#EF7C85"/>
<path d="M24 42.7019C34.3288 42.7019 42.7019 34.3288 42.7019 24C42.7019 13.6712 34.3288 5.2981 24 5.2981C13.6712 5.2981 5.2981 13.6712 5.2981 24C5.2981 34.3288 13.6712 42.7019 24 42.7019Z" fill="#F4FBFF"/>
<path d="M24 5.2981C23.482 5.2981 22.9693 5.32013 22.462 5.36138C32.0713 6.14363 39.6261 14.1892 39.6261 24C39.6261 33.8109 32.0713 41.8563 22.462 42.6386C22.9693 42.68 23.482 42.702 24 42.702C34.3288 42.702 42.7019 34.3288 42.7019 24.0001C42.7019 13.6714 34.3288 5.2981 24 5.2981Z" fill="#DAF1F4"/>
<path d="M24.0001 11.0542C23.6 11.0542 23.2758 10.7299 23.2758 10.3298V9.26672C23.2758 8.86669 23.6 8.5424 24.0001 8.5424C24.4001 8.5424 24.7245 8.86669 24.7245 9.26672V10.3298C24.7245 10.7299 24.4001 11.0542 24.0001 11.0542Z" fill="#95CDE6"/>
<path d="M33.627 15.0744C33.4415 15.0744 33.2562 15.0037 33.1147 14.8623C32.8319 14.5793 32.8319 14.1208 33.1148 13.8379L33.8666 13.0862C34.1494 12.8033 34.6081 12.8033 34.891 13.0862C35.1738 13.3691 35.1738 13.8277 34.8909 14.1106L34.1391 14.8624C33.9976 15.0037 33.8123 15.0744 33.627 15.0744Z" fill="#95CDE6"/>
<path d="M38.6545 24.7244H37.5914C37.1913 24.7244 36.8671 24.4001 36.8671 24.0001C36.8671 23.6001 37.1913 23.2758 37.5914 23.2758H38.6545C39.0546 23.2758 39.3788 23.6001 39.3788 24.0001C39.3788 24.4001 39.0545 24.7244 38.6545 24.7244Z" fill="#95CDE6"/>
<path d="M34.3227 35.1031C34.1374 35.1031 33.952 35.0323 33.8105 34.8909L33.0588 34.1392C32.776 33.8563 32.776 33.3978 33.0588 33.1147C33.3417 32.832 33.8003 32.832 34.0833 33.1147L34.835 33.8664C35.1178 34.1494 35.1178 34.6079 34.835 34.8909C34.6935 35.0323 34.5081 35.1031 34.3227 35.1031Z" fill="#95CDE6"/>
<path d="M23.921 39.3791C23.5209 39.3791 23.1967 39.0548 23.1967 38.6547V37.5916C23.1967 37.1915 23.5209 36.8673 23.921 36.8673C24.321 36.8673 24.6453 37.1916 24.6453 37.5916V38.6547C24.6453 39.0548 24.321 39.3791 23.921 39.3791Z" fill="#95CDE6"/>
<path d="M13.5423 35.0473C13.357 35.0473 13.1715 34.9765 13.0302 34.835C12.7472 34.5522 12.7473 34.0936 13.0302 33.8106L13.7819 33.0589C14.0649 32.7762 14.5234 32.7761 14.8063 33.059C15.0892 33.3419 15.0892 33.8005 14.8063 34.0834L14.0545 34.8351C13.9131 34.9766 13.7277 35.0473 13.5423 35.0473Z" fill="#95CDE6"/>
<path d="M10.3297 24.6456H9.26655C8.86652 24.6456 8.54224 24.3213 8.54224 23.9213C8.54224 23.5212 8.86652 23.1969 9.26655 23.1969H10.3297C10.7297 23.1969 11.054 23.5212 11.054 23.9213C11.0541 24.3213 10.7297 24.6456 10.3297 24.6456Z" fill="#95CDE6"/>
<path d="M14.35 15.0187C14.1647 15.0187 13.9793 14.948 13.8379 14.8065L13.0861 14.0548C12.8032 13.7719 12.8031 13.3134 13.086 13.0304C13.3689 12.7476 13.8275 12.7475 14.1104 13.0303L14.8622 13.7821C15.145 14.0649 15.1451 14.5236 14.8623 14.8065C14.7207 14.9479 14.5354 15.0187 14.35 15.0187Z" fill="#95CDE6"/>
<path d="M24 24.7244H17.8481C17.4481 24.7244 17.1238 24.4 17.1238 24C17.1238 23.6 17.4481 23.2757 17.8481 23.2757H23.2756V14.0603C23.2756 13.6603 23.5998 13.336 23.9999 13.336C24.3999 13.336 24.7242 13.6603 24.7242 14.0603V24C24.7243 24.4 24.4 24.7244 24 24.7244Z" fill="#95CDE6"/>
<path d="M31.4312 28.546C31.3196 28.546 31.2065 28.5201 31.1005 28.4657L23.6688 24.6441C23.313 24.4612 23.1729 24.0245 23.3558 23.6687C23.5387 23.3129 23.9754 23.1727 24.3313 23.3557L31.763 27.1773C32.1188 27.3603 32.259 27.797 32.076 28.1526C31.9475 28.4025 31.6939 28.546 31.4312 28.546Z" fill="#EF7C85"/>
<path d="M24 25.9333C25.0677 25.9333 25.9333 25.0677 25.9333 24C25.9333 22.9323 25.0677 22.0667 24 22.0667C22.9322 22.0667 22.0667 22.9323 22.0667 24C22.0667 25.0677 22.9322 25.9333 24 25.9333Z" fill="#6897AC"/>
</svg>
