<svg width="20" height="20" viewBox="0 0 20 20" fill="none" xmlns="http://www.w3.org/2000/svg">
<path d="M15.9259 7.44926V5.37037C15.9259 2.40926 13.2674 0 9.99999 0C6.73258 0 4.07406 2.40926 4.07406 5.37037V7.44926C2.81443 7.6663 1.85184 8.76407 1.85184 10.0852V17.323C1.85184 18.7989 3.05295 20 4.52924 20H15.4707C16.947 20 18.1481 18.7989 18.1481 17.3226V10.0848C18.1481 8.76407 17.1855 7.6663 15.9259 7.44926ZM4.8148 5.37037C4.8148 2.81741 7.14073 0.740741 9.99999 0.740741C12.8592 0.740741 15.1852 2.81741 15.1852 5.37037V7.40741H4.8148V5.37037ZM11.4815 14.0741C11.4815 14.8911 10.817 15.5556 9.99999 15.5556C9.18295 15.5556 8.5185 14.8911 8.5185 14.0741V11.8519C8.5185 11.0348 9.18295 10.3704 9.99999 10.3704C10.817 10.3704 11.4815 11.0348 11.4815 11.8519V14.0741Z" fill="#EF8BBD"/>
</svg>
