<svg width="20" height="20" viewBox="0 0 20 20" fill="none" xmlns="http://www.w3.org/2000/svg">
<g clip-path="url(#clip0)">
<path d="M19.9363 8.84817C19.8938 8.74649 19.833 8.65399 19.7555 8.57649L17.2563 6.07731C16.9305 5.75231 16.4038 5.75231 16.078 6.07731C15.7522 6.40313 15.7522 6.93063 16.078 7.25563L17.1555 8.33313H12.5005C12.0397 8.33313 11.6672 8.70645 11.6672 9.16645C11.6672 9.62645 12.0397 9.99977 12.5005 9.99977H17.1555L16.078 11.0773C15.7522 11.4031 15.7522 11.9306 16.078 12.2556C16.2405 12.4189 16.4538 12.4998 16.6672 12.4998C16.8805 12.4998 17.0938 12.4189 17.2563 12.2556L19.7555 9.75641C19.833 9.67973 19.8938 9.58723 19.9363 9.48473C20.0205 9.28149 20.0205 9.05149 19.9363 8.84817Z" fill="#EF8BBD"/>
<path d="M14.1672 11.6667C13.7064 11.6667 13.3339 12.04 13.3339 12.5V16.6667H10.0005V3.33332C10.0005 2.96582 9.75886 2.64082 9.40636 2.535L6.51219 1.66668H13.3339V5.83336C13.3339 6.29336 13.7064 6.66668 14.1672 6.66668C14.628 6.66668 15.0005 6.29336 15.0005 5.83336V0.833359C15.0005 0.37332 14.628 0 14.1672 0H0.833869C0.803869 0 0.777189 0.0125 0.748049 0.0158203C0.708869 0.02 0.673049 0.0266406 0.635549 0.0358203C0.548049 0.0583203 0.468869 0.0925 0.394729 0.139141C0.376408 0.15082 0.353909 0.151641 0.336409 0.164961C0.32969 0.17 0.32719 0.17918 0.32051 0.18418C0.22969 0.25582 0.15387 0.34332 0.0988696 0.4475C0.0871899 0.47 0.0846899 0.49418 0.0755493 0.5175C0.0488696 0.58082 0.019729 0.6425 0.009729 0.7125C0.00554931 0.7375 0.0130493 0.76082 0.012229 0.785C0.0114087 0.80168 0.000549316 0.81668 0.000549316 0.83332V17.5C0.000549316 17.8975 0.28137 18.2392 0.670549 18.3167L9.00386 19.9834C9.05804 19.995 9.11304 20 9.16718 20C9.358 20 9.5455 19.9342 9.6955 19.8109C9.888 19.6525 10.0005 19.4167 10.0005 19.1667V18.3334H14.1672C14.628 18.3334 15.0005 17.96 15.0005 17.5V12.5C15.0005 12.04 14.628 11.6667 14.1672 11.6667Z" fill="#EF8BBD"/>
</g>
<defs>
<clipPath id="clip0">
<rect width="20" height="20" fill="white"/>
</clipPath>
</defs>
</svg>
