<svg width="20" height="20" viewBox="0 0 20 20" fill="none" xmlns="http://www.w3.org/2000/svg">
<path d="M15.5556 4.0726L8.14816 5.03445V6.29631V6.98556L15.5556 6.02371V5.23816V4.0726Z" fill="#EF8BBD"/>
<path d="M15.4904 0H4.50963C2.02296 0 0 2.02296 0 4.50963V15.4904C0 17.977 2.02296 20 4.50963 20H15.4904C17.977 20 20 17.977 20 15.4904V4.50963C20 2.02296 17.977 0 15.4904 0ZM16.2963 12.91C16.2963 14.2811 15.0619 15.3967 13.5448 15.3967C12.0278 15.3967 10.7937 14.2811 10.7937 12.91C10.7937 11.5389 12.0281 10.423 13.5448 10.423C14.353 10.423 15.0785 10.7415 15.5826 11.2448C15.5663 11.2033 15.5556 11.1585 15.5556 11.1111V6.77037L8.14815 7.73259V15.1852C8.14815 15.3859 8.14815 14.8481 8.14815 15.2911C8.14815 16.6622 6.90222 17.7778 5.37037 17.7778C3.83852 17.7778 2.59259 16.6622 2.59259 15.2911C2.59259 13.92 3.83852 12.8041 5.37037 12.8041C6.17556 12.8041 6.89963 13.1144 7.40741 13.6059V7.40741V6.2963V4.70889C7.40741 4.52259 7.54556 4.36556 7.73 4.34185L15.8781 3.28407C15.983 3.26963 16.09 3.30296 16.1704 3.37296C16.2504 3.44296 16.2963 3.54407 16.2963 3.65074V5.23778V6.34889V12.5926" fill="#EF8BBD"/>
</svg>
