<svg width="221" height="186" viewBox="0 0 221 186" fill="none" xmlns="http://www.w3.org/2000/svg">
<path d="M117.376 179.876C60.5333 179.876 14.4535 171.659 14.4535 161.524C14.4535 151.388 60.5333 143.172 117.376 143.172C174.218 143.172 220.298 151.388 220.298 161.524C220.298 171.659 174.218 179.876 117.376 179.876Z" fill="#B8BEDD"/>
<path d="M117.376 175.169C67.8182 175.169 27.644 168.526 27.644 160.332C27.644 152.138 67.8182 145.496 117.376 145.496C166.933 145.496 207.107 152.138 207.107 160.332C207.107 168.526 166.933 175.169 117.376 175.169Z" stroke="#F0E6EF" stroke-width="0.928" stroke-miterlimit="10"/>
<path d="M117.376 168.972C80.5588 168.972 50.7128 164.57 50.7128 159.14C50.7128 153.711 80.5588 149.309 117.376 149.309C154.193 149.309 184.038 153.711 184.038 159.14C184.038 164.57 154.193 168.972 117.376 168.972Z" stroke="#F0E6EF" stroke-width="0.6513" stroke-miterlimit="10"/>
<path d="M17.4703 147.343C17.4703 148.832 24.6867 150.024 33.6185 150.024C42.5502 150.024 49.7666 148.832 49.7666 147.343C49.7666 145.853 42.5502 144.661 33.6185 144.661C24.6867 144.721 17.4703 145.913 17.4703 147.343Z" fill="#F0E6EF"/>
<path d="M17.4703 112.665C17.4703 112.665 17.4703 112.724 17.5294 112.724C18.0618 113.261 24.45 113.678 32.3171 113.678C39.8884 113.678 46.0992 113.32 46.9864 112.784C47.0456 112.724 47.1047 112.724 47.1047 112.665C47.1047 112.605 47.1047 112.605 46.9864 112.546C46.6315 112.307 45.3302 112.129 43.3782 112.009C40.6573 111.771 36.6942 111.652 32.3171 111.652C27.0527 111.652 22.4389 111.831 19.7771 112.129C18.4167 112.248 17.5886 112.426 17.4703 112.665C17.4703 112.605 17.4703 112.605 17.4703 112.665Z" fill="#382B31"/>
<path d="M46.9863 112.546V112.783C47.0455 112.724 47.1047 112.724 47.1047 112.664C47.0455 112.605 47.0455 112.546 46.9863 112.546Z" fill="#382B31"/>
<path d="M17.4702 112.665C17.4702 112.665 17.4702 112.724 17.5294 112.724L17.4702 112.665C17.4702 112.605 17.4702 112.605 17.4702 112.665Z" fill="#382B31"/>
<path d="M31.4298 119.695C31.4298 119.695 33.1452 105.335 30.1285 90.0817C27.1118 74.8282 24.5684 65.9501 22.9713 65.9501C21.3742 65.9501 22.6164 85.5533 24.1543 96.1593C25.7514 106.825 31.4298 119.695 31.4298 119.695Z" fill="#FFCDB2"/>
<path d="M22.9706 66.0095L31.37 119.337" stroke="#D88C84" stroke-width="0.2001" stroke-miterlimit="10" stroke-linecap="round" stroke-linejoin="round"/>
<path d="M31.9622 119.874C31.9622 119.874 37.1675 106.408 37.9956 90.9166C38.8237 75.4247 38.5871 66.1891 37.0492 65.772C35.5113 65.3549 31.8439 84.6602 30.7201 95.3258C29.6554 105.932 31.9622 119.874 31.9622 119.874Z" fill="#FFCDB2"/>
<path d="M37.0491 65.772L32.0213 119.517" stroke="#D88C84" stroke-width="0.2001" stroke-miterlimit="10" stroke-linecap="round" stroke-linejoin="round"/>
<path d="M32.0805 120.113C32.0805 120.113 40.8939 109.983 46.5724 96.6962C52.2509 83.4089 54.9127 75.2459 53.7296 74.4117C52.5466 73.5775 43.2008 89.2482 38.8237 98.1858C34.5057 107.183 32.0805 120.113 32.0805 120.113Z" fill="#FFCDB2"/>
<path d="M53.7292 74.4709L32.2576 119.814" stroke="#D88C84" stroke-width="0.1862" stroke-miterlimit="10" stroke-linecap="round" stroke-linejoin="round"/>
<path d="M29.7145 118.981C29.7145 118.981 41.308 115.704 52.0143 108.434C62.7206 101.165 68.7539 96.3387 68.2807 95.1471C67.7484 93.8958 53.079 101.165 45.4486 105.753C37.8181 110.46 29.7145 118.981 29.7145 118.981Z" fill="#FFCDB2"/>
<path d="M68.2806 95.1465L29.951 118.861" stroke="#D88C84" stroke-width="0.1677" stroke-miterlimit="10" stroke-linecap="round" stroke-linejoin="round"/>
<path d="M30.9565 119.755C30.9565 119.755 28.4131 105.515 21.0784 91.8699C13.7437 78.2251 8.77504 70.4792 7.23712 70.8963C5.75836 71.3729 12.6198 89.7249 17.1744 99.4371C21.7882 109.09 30.9565 119.755 30.9565 119.755Z" fill="#FFCDB2"/>
<path d="M7.29613 70.8962L30.8381 119.398" stroke="#D88C84" stroke-width="0.2001" stroke-miterlimit="10" stroke-linecap="round" stroke-linejoin="round"/>
<path d="M31.4298 119.636C31.4298 119.636 25.7513 109.328 16.5238 100.748C7.29633 92.1678 1.44042 87.5203 0.375708 88.2353C-0.689007 89.0099 9.42576 101.344 15.4591 107.6C21.6108 113.856 31.4298 119.636 31.4298 119.636Z" fill="#FFCDB2"/>
<path d="M0.43455 88.235L31.2521 119.398" stroke="#D88C84" stroke-width="0.163" stroke-miterlimit="10" stroke-linecap="round" stroke-linejoin="round"/>
<path d="M17.4703 112.724L17.9435 115.882L18.0027 116.419L18.1801 117.61L18.2393 118.146L21.8475 142.218L21.9066 142.695L21.9658 143.053C22.0249 143.291 22.0249 143.529 22.1432 143.768C22.2024 143.946 22.2615 144.125 22.3207 144.244C23.2079 146.628 25.4557 148.356 28.1174 148.356H38.4097C41.0714 148.356 43.3783 146.628 44.2064 144.185C44.2656 144.006 44.3247 143.887 44.3839 143.708C44.443 143.351 44.5022 142.993 44.5613 142.636L44.6205 142.159L46.5133 118.504L46.5724 118.027L46.6907 116.836L46.7499 116.359L47.0457 112.784C47.0457 112.784 46.9865 112.843 46.9273 112.843C46.8682 112.843 46.8091 112.903 46.7499 112.903C46.6908 112.903 46.5724 112.963 46.4541 112.963C46.4541 112.963 46.4541 112.963 46.395 112.963C46.3358 112.963 46.2767 112.963 46.2175 113.022C46.1584 113.022 46.0401 113.082 45.9218 113.082C45.8035 113.082 45.626 113.141 45.5077 113.141C45.4486 113.141 45.4486 113.141 45.3894 113.141C45.212 113.141 44.9754 113.201 44.7388 113.201C44.443 113.261 44.1473 113.261 43.8515 113.261C43.6149 113.261 43.3783 113.32 43.0826 113.32C42.7868 113.32 42.491 113.38 42.1361 113.38C41.7812 113.38 41.4855 113.439 41.1306 113.439C40.9531 113.439 40.7757 113.439 40.5982 113.439C40.0659 113.439 39.4744 113.499 38.8829 113.499C38.7646 113.499 38.7054 113.499 38.5871 113.499C38.4688 113.499 38.4096 113.499 38.2913 113.499C37.9364 113.499 37.5224 113.499 37.1675 113.499C37.1083 113.499 37.1083 113.499 37.0492 113.499C36.8126 113.499 36.5168 113.499 36.2802 113.499C35.9845 113.499 35.6887 113.499 35.3338 113.499C34.9198 113.499 34.5649 113.499 34.1508 113.499H33.7368C33.3819 113.499 33.0861 113.499 32.7312 113.499H31.9622C31.7256 113.499 31.489 113.499 31.3116 113.499H30.6018C30.306 113.499 29.9511 113.499 29.6554 113.499C29.4779 113.499 29.3004 113.499 29.123 113.499C28.7681 113.499 28.4723 113.499 28.1174 113.499C27.9991 113.499 27.8217 113.499 27.7034 113.499C27.171 113.499 26.6387 113.499 26.1655 113.439C25.988 113.439 25.7514 113.439 25.574 113.439C25.3965 113.439 25.1599 113.439 24.9824 113.439C24.7458 113.439 24.4501 113.439 24.2135 113.38C23.9769 113.38 23.7403 113.38 23.5037 113.32C23.2671 113.32 22.9713 113.32 22.7347 113.261C22.6164 113.261 22.4981 113.261 22.3798 113.261C21.67 113.201 21.0194 113.141 20.487 113.141C20.3687 113.141 20.2504 113.141 20.073 113.082C20.0138 113.082 20.0138 113.082 19.9546 113.082C19.7772 113.082 19.5997 113.022 19.4223 113.022C19.3631 113.022 19.3632 113.022 19.304 113.022C19.1857 113.022 19.0674 113.022 19.0082 112.963C18.8308 112.963 18.6533 112.903 18.4759 112.903C18.4167 112.903 18.2984 112.903 18.2393 112.843C18.0027 112.784 17.8844 112.724 17.7661 112.724C17.7069 112.724 17.7069 112.665 17.6478 112.665C17.5295 112.724 17.5295 112.724 17.4703 112.724C17.5295 112.724 17.4703 112.724 17.4703 112.724Z" fill="#FF99A8"/>
<path d="M17.9436 115.882L18.0027 116.419C20.7828 117.074 24.3318 117.372 27.9992 117.491C28.3541 117.491 28.709 117.491 29.0639 117.491C29.1822 117.491 29.2414 117.491 29.3597 117.491C29.5371 117.491 29.7146 117.491 29.892 117.491H30.1878C30.3061 117.491 30.3652 117.491 30.4835 117.491C30.661 117.491 30.8976 117.491 31.075 117.491H31.6074C31.7848 117.491 31.9623 117.491 32.1397 117.491H32.1989C32.3172 117.491 32.4946 117.491 32.6129 117.491C32.6721 117.491 32.7312 117.491 32.7904 117.491C32.9678 117.491 33.1453 117.491 33.3819 117.491C33.6777 117.491 33.9142 117.491 34.21 117.491H34.2692C39.8293 117.372 44.7388 117.014 46.6316 116.836L46.6908 116.359C45.0346 116.478 40.6574 116.895 35.5705 117.014C35.2747 117.014 34.979 117.014 34.6832 117.014C34.3283 117.014 34.0326 117.014 33.6777 117.014C33.441 117.014 33.2636 117.014 33.027 117.014H32.9678C32.9087 117.014 32.8495 117.014 32.7904 117.014H32.258C32.0806 117.014 31.844 117.014 31.6665 117.014H31.0159C30.7793 117.014 30.6018 117.014 30.4244 117.014H30.3652C30.2469 117.014 30.0695 117.014 29.9512 117.014C29.892 117.014 29.8329 117.014 29.7146 117.014C29.4779 117.014 29.1822 117.014 28.9456 117.014C28.8864 117.014 28.8273 117.014 28.7682 117.014C28.2949 117.014 27.8217 117.014 27.2894 116.955C23.7995 116.836 20.5462 116.538 17.9436 115.882Z" fill="#F0E6EF"/>
<path d="M18.2393 117.61L18.2984 118.147C21.67 118.862 26.1063 119.159 30.4835 119.219H30.7201C30.7792 119.219 30.8383 119.219 30.8975 119.219C30.9566 119.219 31.0158 119.219 31.075 119.219H31.5482C31.6665 119.219 31.7848 119.219 31.9031 119.219C31.9622 119.219 32.0214 119.219 32.0805 119.219C32.1397 119.219 32.1988 119.219 32.258 119.219H32.3171H32.6129C32.7312 119.219 32.8495 119.219 32.9678 119.219C38.942 119.159 44.3839 118.742 46.5724 118.564L46.6316 118.087C44.6205 118.266 39.2378 118.683 33.3818 118.742C33.2044 118.742 33.0269 118.742 32.9086 118.742C32.7903 118.742 32.6129 118.742 32.4946 118.742C32.3763 118.742 32.3171 118.742 32.1988 118.742C32.0805 118.742 32.0214 118.742 31.9031 118.742H31.075H31.0158C30.9567 118.742 30.8975 118.742 30.8384 118.742H30.7792H30.306C30.2468 118.742 30.1877 118.742 30.1877 118.742H30.0102C25.6922 118.623 21.4334 118.325 18.2393 117.61Z" fill="#F0E6EF"/>
<path d="M22.2024 143.768C22.2616 143.947 22.3207 144.125 22.3799 144.244C25.2191 144.542 28.3541 144.662 31.4891 144.662C36.4578 144.662 41.249 144.364 44.2657 144.125C44.3248 143.947 44.384 143.827 44.4431 143.649C39.5336 144.066 29.6554 144.602 22.2024 143.768Z" fill="#F0E6EF"/>
<path d="M21.9066 142.219L21.9657 142.695C24.8641 143.053 28.1765 143.172 31.4298 143.172C36.5759 143.172 41.5446 142.874 44.5021 142.636L44.5613 142.159C39.7109 142.517 29.537 143.112 21.9066 142.219Z" fill="#F0E6EF"/>
<path d="M146.123 162.596L144.703 173.143C144.585 174.215 143.166 174.454 142.633 173.56L138.374 163.311L146.123 162.596Z" fill="#575369"/>
<path d="M41.0713 146.807L39.6517 157.353C39.5334 158.425 38.1138 158.664 37.5814 157.77L33.3226 147.522L41.0713 146.807Z" fill="#575369"/>
<path d="M194.686 145.555L193.266 156.102C193.148 157.174 191.728 157.412 191.196 156.519L186.641 148.832L194.686 145.555Z" fill="#575369"/>
<path d="M89.8112 56.2386L173.332 56.5961L178.596 59.8136L176.881 78.2252L195.513 81.2639C196.933 81.5023 197.998 82.7535 197.998 84.2431V144.364L145.649 164.801L31.4887 147.641C29.8324 147.402 28.5311 145.972 28.472 144.304L25.7511 88.7715C25.6919 87.2224 26.7566 85.9115 28.2945 85.6732L86.4396 77.8676L89.8112 56.2386Z" fill="#EFC3E6"/>
<path d="M41.0713 149.011V91.5721C41.0713 89.427 39.4151 87.6395 37.2857 87.4608L26.7568 86.6266" stroke="#382B31" stroke-width="0.2341" stroke-miterlimit="10" stroke-linecap="round" stroke-linejoin="round"/>
<path d="M125.775 131.732C125.775 131.732 64.9681 120.351 40.8938 121.483" stroke="#382B31" stroke-width="0.2341" stroke-miterlimit="10" stroke-linecap="round" stroke-linejoin="round"/>
<path d="M85.316 104.383C85.316 104.383 44.1472 108.256 41.0713 120.888" stroke="#382B31" stroke-width="0.2341" stroke-miterlimit="10" stroke-linecap="round" stroke-linejoin="round"/>
<path d="M86.4399 82.1577L39.9475 88.5928" stroke="#382B31" stroke-width="0.2341" stroke-miterlimit="10" stroke-linecap="round" stroke-linejoin="round"/>
<path opacity="0.27" d="M173.332 56.5961L166.648 113.201L84.902 104.978L86.4399 77.8676L89.8115 56.2386L173.332 56.5961Z" fill="#EFC3E6"/>
<path d="M146.773 70.1217L151.624 70.6579L162.508 71.9092H162.567L164.045 72.088C164.045 72.088 164.4 69.7046 164.164 65.7125C164.105 65.1762 164.105 64.5804 164.045 63.9249C163.868 62.197 163.631 60.2307 163.158 58.0857C163.099 57.7282 162.981 57.3707 162.922 56.9536C162.862 56.7748 162.803 56.5365 162.803 56.3577C162.271 54.2723 161.561 52.6039 160.733 51.2335C160.378 50.6377 159.964 50.0418 159.609 49.5652C158.367 47.9564 157.066 47.003 156.178 46.4072C155.409 45.9305 154.877 45.7518 154.877 45.7518L154.226 46.3476L150.855 49.446L150.796 49.6247L150.441 51.2931L149.554 55.7619L149.258 57.4303L148.311 62.4949L147.956 64.2229L146.892 69.8238L146.773 70.1217Z" fill="#FFCDB2"/>
<path d="M104.776 77.8676L102.825 83.5281L109.213 85.7327L112.466 84.7794L112.762 82.5152L111.638 79.1785L104.481 77.8676" fill="#FF99A8"/>
<path d="M115.483 61.2437L108.03 82.5748L111.697 85.8519L116.666 79.7147L118.973 74.4713L118.854 67.6192L117.139 62.0182L115.483 61.2437Z" fill="#FF99A8"/>
<path d="M63.6077 99.5563C62.6021 99.0796 61.5374 98.6029 60.4135 98.3646C59.8812 98.2454 59.408 98.2454 59.1122 98.7817C58.8165 99.4371 58.8756 100.152 58.8756 100.867C58.8165 102.178 58.0475 103.31 58.1066 104.621C58.1658 106.051 58.9347 107.421 60.1769 108.136C60.9459 108.554 61.774 108.673 62.6021 108.851C63.4893 108.971 64.3175 109.149 65.1456 109.328C67.0384 109.686 68.9904 109.984 70.9423 110.281C71.7704 110.401 72.6577 110.52 73.4858 110.639C73.6633 110.639 73.8407 110.699 73.959 110.579C74.0773 110.52 74.0773 110.401 74.1365 110.281C74.3731 109.388 74.6097 108.494 74.4914 107.6C74.3731 107.064 74.1365 106.528 73.8999 106.051C73.1309 104.681 72.0662 103.429 70.7649 102.476C70.1142 101.999 69.4044 101.523 68.6355 101.284C68.0439 101.105 67.3933 101.165 66.8018 100.927C65.6188 100.51 64.6132 99.9734 63.6077 99.5563Z" fill="#F0E6EF"/>
<path d="M73.3076 106.647V106.706L73.2485 109.09V109.209L73.1893 110.639C73.1893 110.639 73.1893 110.639 84.0731 112.784C94.4836 114.81 103.179 107.898 103.889 107.302C103.889 107.302 103.889 107.302 103.948 107.362C109.33 113.618 114.713 115.406 114.713 115.406C124.177 117.253 141.153 116.836 144.703 111.711C147.66 107.421 145.826 94.6703 145.176 90.559C145.176 90.4994 145.176 90.4399 145.176 90.3803C145.057 89.6653 144.998 89.3078 144.998 89.3078C144.998 89.3078 137.25 83.826 131.334 81.4426C125.419 78.9997 115.186 80.1914 115.186 80.1914L113.885 81.3831L113.708 81.5022L110.809 84.1239C110.809 84.1239 110.573 84.0644 109.626 83.8856C109.626 83.8856 109.626 83.8856 109.567 83.8856C108.916 83.7664 108.029 83.5877 106.669 83.2898C106.609 83.2898 106.55 83.2898 106.491 83.2302C106.195 83.1706 105.9 83.111 105.545 83.0514H105.486C105.072 82.9918 104.658 82.8727 104.184 82.8131C98.5058 81.681 95.0159 85.8519 95.0159 85.8519C95.0159 85.8519 95.0159 85.8519 94.9568 85.8519C94.1878 85.4348 83.9548 79.953 77.0341 77.9272C69.8177 75.7821 58.6383 75.4842 56.6863 83.6473C54.6752 91.3336 72.1838 105.753 73.3076 106.647Z" fill="#575369"/>
<path d="M73.3083 106.766C77.3305 106.289 81.2344 103.429 84.0145 98.9604C86.9129 94.3725 91.3492 89.1886 95.9038 85.0177C99.512 81.7406 103.475 82.1577 111.046 84.3623C117.494 86.269 132.636 99.4967 132.814 99.6159C132.814 99.6159 132.873 99.6159 132.932 99.6159C132.932 99.6159 132.932 99.5563 132.932 99.4967C132.755 99.3775 117.612 86.0903 111.106 84.1836C103.534 81.979 99.512 81.5023 95.8447 84.839C91.2901 89.0099 86.8538 94.2533 83.9554 98.8413C81.1753 103.251 77.3305 106.111 73.3674 106.587C73.3083 106.587 73.3083 106.647 73.3083 106.647C73.2491 106.706 73.3083 106.766 73.3083 106.766Z" fill="#382B31"/>
<path d="M103.948 107.302C104.007 107.302 104.007 107.302 104.007 107.243C104.185 102.893 105.545 99.9138 105.604 99.9138C105.604 99.8542 105.604 99.8542 105.545 99.7946C105.486 99.7946 105.486 99.7946 105.427 99.8542C105.427 99.9138 104.007 102.833 103.83 107.243C103.889 107.302 103.889 107.302 103.948 107.302Z" fill="#382B31"/>
<path d="M103.889 107.243C103.948 107.243 103.948 107.243 103.889 107.243C103.948 107.243 103.948 107.183 103.948 107.123C103.179 105.455 101.996 99.4967 101.996 99.4372C101.996 99.3776 101.937 99.3776 101.937 99.3776C101.878 99.3776 101.878 99.4372 101.878 99.4372C101.878 99.4967 103.061 105.455 103.889 107.123C103.889 107.243 103.889 107.243 103.889 107.243Z" fill="#382B31"/>
<path d="M103.889 107.243C103.948 107.243 103.948 107.183 103.889 107.243C103.948 107.183 103.948 107.123 103.948 107.123C102.174 105.455 99.7487 101.403 99.6895 101.403C99.6895 101.344 99.6304 101.344 99.5712 101.403C99.5121 101.403 99.5121 101.463 99.5712 101.523C99.6304 101.463 102.115 105.515 103.889 107.243C103.889 107.183 103.889 107.243 103.889 107.243Z" fill="#382B31"/>
<path d="M84.961 97.5304C85.0201 97.4708 85.0201 97.4708 85.0201 97.4112C84.961 97.3516 78.9868 88.8907 73.4266 86.0306C67.8664 83.1706 64.968 82.1577 64.9089 82.1577C64.8497 82.1577 64.8497 82.1577 64.8497 82.2172C64.8497 82.2768 64.8497 82.2768 64.9089 82.2768C64.9089 82.2768 67.8664 83.2898 73.3674 86.1498C78.9276 89.0098 84.8427 97.4112 84.961 97.5304C84.9018 97.5304 84.961 97.5304 84.961 97.5304Z" fill="#382B31"/>
<path d="M72.4211 85.6732C72.4802 85.6136 72.4802 85.6136 72.4802 85.554L70.1142 82.6343C70.1142 82.5748 70.055 82.5748 69.9959 82.6343C69.9367 82.6343 69.9367 82.6939 69.9959 82.7535L72.4211 85.6732C72.3619 85.6732 72.4211 85.6732 72.4211 85.6732Z" fill="#382B31"/>
<path d="M118.677 88.5328C118.736 88.5328 118.736 88.5328 118.736 88.4732C119.505 85.3152 122.226 80.4889 122.285 80.4293C122.285 80.3698 122.285 80.3698 122.285 80.3102C122.226 80.3102 122.226 80.3102 122.167 80.3102C122.167 80.3698 119.446 85.1961 118.618 88.354C118.618 88.4732 118.618 88.4732 118.677 88.5328Z" fill="#382B31"/>
<path d="M119.091 86.9244H119.15C119.209 86.9244 119.209 86.8648 119.209 86.8648C119.209 86.8052 119.15 86.8052 119.15 86.8052C119.032 86.8052 118.854 86.7457 118.736 86.6265C118.618 86.5073 118.558 86.3286 118.499 86.2094C118.44 85.8519 118.618 85.4944 118.736 85.1965C119.032 84.4219 119.387 83.5877 119.742 82.7535C120.096 81.9193 120.451 81.0852 120.747 80.3106C120.747 80.251 120.747 80.251 120.688 80.1914C120.629 80.1914 120.629 80.1914 120.57 80.251C120.274 81.0256 119.919 81.8598 119.564 82.6939C119.209 83.5281 118.854 84.3623 118.559 85.1369C118.44 85.4348 118.263 85.8519 118.322 86.2094C118.322 86.3882 118.44 86.5669 118.559 86.7457C118.736 86.8648 118.913 86.9244 119.091 86.9244Z" fill="#382B31"/>
<path d="M113.708 81.3831C114.3 81.3831 114.891 81.3831 115.424 81.4427C116.961 81.5023 118.44 81.6214 119.919 81.8002C119.978 81.8002 120.037 81.8002 120.037 81.8002C120.451 81.8598 120.806 81.9194 121.22 81.9194C121.279 81.9194 121.339 81.9194 121.339 81.9194C123.291 82.1577 125.183 82.5152 127.135 82.9919H127.195C127.431 83.0515 127.727 83.111 127.964 83.1706H128.023C128.792 83.3494 129.561 83.5877 130.33 83.7665C130.389 83.7665 130.448 83.826 130.507 83.826C131.808 84.1836 133.169 84.6006 134.529 85.0773C134.943 85.1965 135.357 85.3752 135.771 85.4944C135.831 85.4944 135.831 85.554 135.89 85.554C136.067 85.6136 136.304 85.7327 136.481 85.7923C136.54 85.7923 136.54 85.8519 136.6 85.8519C138.67 86.6861 140.444 87.5203 141.805 88.2949C141.864 88.2949 141.923 88.3545 141.923 88.3545C143.284 89.1291 144.348 89.7845 145.058 90.3207C145.827 90.9166 146.241 91.2741 146.241 91.2741C146.241 91.2741 146.241 91.2741 146.3 91.2741H146.359C146.359 91.2741 146.359 91.2145 146.359 91.1549C146.359 91.1549 145.945 90.7378 145.058 90.142C144.348 89.6057 143.284 88.9503 141.923 88.1757C141.864 88.1757 141.805 88.1161 141.805 88.1161C140.385 87.3415 138.67 86.5073 136.6 85.6732C136.54 85.6732 136.54 85.6136 136.481 85.6136C136.304 85.554 136.126 85.4944 135.949 85.3752C135.89 85.3752 135.89 85.3157 135.831 85.3157C135.416 85.1369 135.002 85.0177 134.588 84.839C132.4 84.0644 130.27 83.409 128.141 82.9323C128.082 82.9323 128.082 82.9323 128.023 82.8727C127.786 82.8131 127.549 82.7535 127.313 82.694C127.254 82.694 127.254 82.6939 127.195 82.6344C125.302 82.2173 123.409 81.8598 121.457 81.5618C121.398 81.5618 121.339 81.5618 121.339 81.5618C120.925 81.5023 120.57 81.4427 120.156 81.3831C120.096 81.3831 120.037 81.3831 120.037 81.3831C118.026 81.1448 115.956 81.0256 113.886 80.966L113.708 81.3831Z" fill="#382B31"/>
<path d="M136.658 86.0903C136.717 86.0903 136.717 86.0903 136.717 86.0307C136.776 85.5541 136.954 85.0774 137.191 84.7199C137.191 84.6603 137.191 84.6603 137.191 84.6007C137.132 84.6007 137.132 84.6007 137.073 84.6007C136.776 85.0178 136.599 85.4945 136.539 85.9711C136.539 86.0307 136.599 86.0903 136.658 86.0903Z" fill="#382B31"/>
<path d="M135.949 85.7327C135.949 85.7327 136.008 85.7327 136.008 85.6732C136.185 85.1965 136.422 84.7794 136.659 84.3027C136.659 84.2431 136.659 84.2431 136.659 84.1835C136.6 84.1835 136.6 84.1835 136.54 84.1835C136.304 84.6006 136.067 85.0773 135.831 85.554C135.831 85.6731 135.89 85.7327 135.949 85.7327C135.89 85.7327 135.949 85.7327 135.949 85.7327Z" fill="#382B31"/>
<path d="M128.082 83.2898C128.141 83.2898 128.141 83.2898 128.141 83.2302C128.318 82.4556 128.555 81.681 128.851 80.966C128.851 80.9064 128.851 80.9064 128.792 80.8468C128.732 80.8468 128.732 80.8468 128.673 80.9064C128.378 81.6214 128.141 82.396 127.963 83.1706C128.023 83.2302 128.082 83.2898 128.082 83.2898Z" fill="#382B31"/>
<path d="M127.254 83.111C127.254 83.111 127.313 83.111 127.313 83.0514L128.023 80.9064C128.023 80.8468 128.023 80.8468 127.964 80.8468C127.904 80.8468 127.904 80.8468 127.904 80.9064L127.195 83.0514C127.195 83.0514 127.195 83.111 127.254 83.111Z" fill="#382B31"/>
<path d="M84.8427 111.414C85.2568 111.414 85.73 111.414 86.144 111.354C91.0535 111.056 95.2532 108.673 97.2052 105.157C97.6192 104.383 97.9742 103.489 98.3291 102.655C99.098 100.688 99.9261 98.6625 101.819 97.7688C103.061 97.1729 104.717 97.2325 106.314 97.8879C107.675 98.4838 108.917 99.4371 110.1 100.39L110.218 100.51C113.472 103.072 117.021 105.753 120.925 107.66C125.243 109.805 129.442 110.758 133.405 110.52C135.417 110.401 138.137 109.864 139.853 107.958C141.391 106.17 141.746 103.668 141.923 101.463C142.337 97.0537 142.396 92.5254 142.101 88.0565C142.101 87.997 142.041 87.9969 142.041 87.9969C141.982 87.9969 141.982 88.0565 141.982 88.0565C142.219 92.4658 142.16 96.9942 141.805 101.403C141.627 103.608 141.272 106.111 139.735 107.838C138.078 109.745 135.357 110.281 133.405 110.401C129.501 110.639 125.302 109.686 121.043 107.541C117.139 105.634 113.59 102.953 110.337 100.39L110.218 100.271C109.035 99.3179 107.793 98.3646 106.433 97.7688C104.776 97.0537 103.12 97.0538 101.819 97.6496C99.9261 98.5434 99.098 100.629 98.2699 102.595C97.915 103.429 97.5601 104.263 97.146 105.038C95.2532 108.494 91.0535 110.818 86.2032 111.175C81.826 111.473 77.508 110.222 73.3083 109.09C73.2492 109.09 73.2492 109.09 73.2492 109.149C73.2492 109.209 73.2492 109.209 73.3083 109.209C76.9757 110.281 80.8796 111.414 84.8427 111.414Z" fill="#382B31"/>
<path d="M141.805 100.748C141.864 100.748 141.864 100.748 141.864 100.688C141.864 100.629 141.864 100.629 141.805 100.629C138.729 99.9138 136.126 98.6029 134.411 96.7558C132.991 95.2662 131.867 93.1807 131.276 90.7974C130.803 88.8907 130.566 86.7457 130.566 84.0644C130.566 84.0644 130.566 84.0644 130.625 84.0048C130.625 83.9452 130.625 83.9452 130.625 83.9452C130.625 83.9452 130.625 83.8856 130.566 83.8856C130.566 83.8856 130.448 83.8856 130.448 83.9452C130.448 84.0048 130.448 84.0048 130.448 84.0048C130.448 86.7457 130.625 88.8907 131.158 90.7974C131.808 93.1807 132.873 95.2662 134.352 96.8154C136.126 98.6625 138.67 100.033 141.805 100.748Z" fill="#382B31"/>
<path d="M111.342 84.2431C111.993 84.2431 112.644 84.124 113.294 83.8856C114.477 83.409 115.305 82.5152 115.542 81.5023C115.542 81.4427 115.542 81.4427 115.483 81.4427C115.424 81.4427 115.424 81.4427 115.424 81.5023C115.246 82.4556 114.418 83.2898 113.294 83.7665C112.644 84.0048 111.934 84.124 111.283 84.124C111.224 84.124 111.224 84.1836 111.224 84.1836C111.224 84.2431 111.224 84.2431 111.283 84.2431C111.283 84.2431 111.283 84.2431 111.342 84.2431Z" fill="#382B31"/>
<path d="M83.7188 99.6158C83.7779 99.5562 83.7779 99.5562 83.7779 99.4967C81.057 95.5641 77.508 92.1678 73.4266 89.6653C72.9534 89.3674 72.5393 89.129 72.0661 88.8311C70.6465 87.9969 69.1677 87.1032 67.9847 85.9711C67.1566 85.1965 66.8017 84.4814 66.92 83.7664C67.0383 83.2302 67.4524 82.6939 68.0439 82.4556C68.5171 82.2768 69.1086 82.1577 69.8775 82.2173C73.0125 82.3364 75.8518 83.9452 78.3361 85.4348C81.826 87.5798 85.2567 89.9632 88.51 92.4657C88.5691 92.4657 88.5691 92.4657 88.6283 92.4657C88.6283 92.4061 88.6283 92.4061 88.6283 92.3466C85.375 89.7844 81.9443 87.4607 78.4544 85.3156C75.9701 83.826 73.1308 82.2173 69.9367 82.0981C69.4043 82.0981 68.6945 82.0981 68.0439 82.3364C67.3932 82.6343 66.92 83.1706 66.8017 83.7664C66.6834 84.4814 67.0383 85.256 67.8664 86.0902C69.1086 87.2819 70.5873 88.1161 72.007 88.9503C72.4802 89.1886 72.8942 89.4865 73.3674 89.7844C77.3897 92.287 80.9387 95.6833 83.7188 99.6158C83.6596 99.6158 83.6596 99.6158 83.7188 99.6158Z" fill="#382B31"/>
<path d="M115.187 80.0722C115.187 80.0722 116.193 79.7743 125.065 80.6681C131.276 81.2639 137.191 84.4814 140.977 86.984C142.929 88.2352 144.289 89.3673 144.821 89.7844C144.999 89.9632 145.117 90.0228 145.117 90.0228C145.117 90.0228 145.117 89.9036 145.176 89.7248C145.413 88.8907 146.064 86.3881 147.01 83.4685C147.187 82.9323 147.365 82.3364 147.542 81.8002C147.956 80.5489 148.43 79.238 148.962 78.0464C149.199 77.4505 149.435 76.9143 149.672 76.378C149.731 76.1992 149.849 76.0205 149.908 75.8417C150.322 75.0076 150.737 73.6967 151.151 72.0879V72.0284C151.269 71.5517 151.387 71.075 151.505 70.5983C151.505 70.5388 151.505 70.4792 151.565 70.4196C151.979 68.6916 152.393 66.6658 152.807 64.6399C152.925 64.0441 153.043 63.5078 153.162 62.912C153.517 61.1245 153.812 59.3369 154.108 57.609C154.226 57.0727 154.286 56.4769 154.404 55.9406C154.7 54.2127 154.936 52.6039 155.173 51.2335C155.232 50.6376 155.35 50.0418 155.409 49.5651C155.705 47.718 155.823 46.5859 155.823 46.5859C155.764 46.5263 155.646 46.4072 155.528 46.3476C155.232 46.1093 154.936 45.9305 154.64 45.6922C153.99 45.2751 153.28 44.9176 152.629 44.6196C149.968 43.428 147.365 42.8917 147.365 42.8917C147.365 42.8917 137.309 41.7 132.873 42.1767C131.335 42.3554 129.915 42.6534 128.792 42.9513C127.313 43.3684 126.189 43.8451 125.716 44.0834C125.538 44.2026 125.42 44.2621 125.42 44.2621C125.42 44.2621 125.361 44.2621 125.302 44.3217C124.947 44.6196 123.705 45.7517 122.226 47.6584C121.871 48.1351 121.516 48.6118 121.161 49.148C120.57 49.9822 120.037 50.9356 119.446 51.9485C119.209 52.4252 118.913 52.9614 118.677 53.4381C118.204 54.451 117.73 55.5235 117.376 56.6556C117.316 56.894 117.198 57.1919 117.139 57.4302C116.961 58.0261 116.843 58.5623 116.725 59.0986C116.488 60.1115 116.37 61.0649 116.311 61.9586C116.252 62.4949 116.252 63.0907 116.252 63.5674C116.252 64.2228 116.311 64.8783 116.37 65.4145C116.666 68.0958 117.435 69.7046 117.553 69.8833L117.139 71.5517L116.252 75.1267L115.838 76.7951L115.187 80.0722Z" fill="#FFCDB2"/>
<path opacity="0.47" d="M141.036 86.984C142.988 88.2948 144.348 89.3673 144.881 89.7844C144.999 89.7844 145.117 89.7844 145.236 89.7248C145.472 88.8907 146.123 86.3881 147.069 83.4685C147.247 82.9322 147.424 82.3364 147.602 81.8002C148.016 80.5489 148.489 79.238 149.021 78.0463C149.258 77.4505 149.494 76.9142 149.731 76.378C149.79 76.1992 149.908 76.0205 149.968 75.8417C150.382 75.0076 150.796 73.6967 151.21 72.0879V72.0283C151.21 71.5517 151.21 71.075 151.032 70.5983C150.559 69.4662 149.258 68.93 148.075 68.5725V64.8187C147.897 67.0233 147.661 69.2875 146.537 71.1346C146.3 71.5517 145.945 72.0283 145.768 72.505C145.472 73.3392 145.65 74.233 145.59 75.1267C145.472 76.7355 144.644 78.2251 143.757 79.5955C142.869 80.966 141.864 82.2172 141.272 83.7664C140.918 84.8389 140.799 85.971 141.036 86.984Z" fill="#F1C3B5"/>
<path d="M113.649 60.1115L116.429 62.1374L117.908 63.2099L119.268 59.9924L119.978 58.3836L121.694 54.3915L122.344 52.8423L123.646 49.8035L124.296 48.1947L125.952 44.2622V44.2026C125.952 44.2026 125.952 44.2026 125.893 44.2622C125.834 44.3217 125.657 44.3813 125.42 44.5005C124.533 44.9772 122.758 46.0497 120.984 47.5393C120.511 47.9564 119.978 48.433 119.505 48.9097C118.736 49.6843 118.026 50.5781 117.553 51.4718C117.494 51.5314 117.435 51.6506 117.435 51.7102C117.198 52.1273 117.021 52.5444 116.843 52.9614C116.133 54.3915 115.542 55.7619 115.01 56.894C114.773 57.4898 114.536 58.0261 114.3 58.5028C113.886 59.5157 113.649 60.1115 113.649 60.1115Z" fill="#FFCDB2"/>
<path d="M119.564 48.8501C120.156 49.0289 120.747 49.148 121.339 49.2672C122.108 49.4459 122.817 49.5651 123.646 49.7439C125.183 50.0418 126.84 50.2801 128.555 50.5185C134.115 51.2335 139.735 51.4122 145.354 51.4122C147.069 51.4122 148.725 51.4122 150.441 51.3526C151.269 51.3526 152.097 51.3526 152.866 51.293C153.635 51.293 154.463 51.293 155.291 51.293C157.125 51.293 158.899 51.2335 160.733 51.2335C160.378 50.6376 159.964 50.0418 159.609 49.5651C158.249 49.5651 156.888 49.5651 155.528 49.6247C154.641 49.6247 153.753 49.6247 152.866 49.6843C152.156 49.6843 151.446 49.6843 150.796 49.7439C143.52 49.8034 136.067 49.863 128.851 48.9097C127.313 48.7309 125.834 48.4926 124.415 48.1947C123.764 48.0755 123.113 47.9563 122.522 47.8372C122.048 47.718 121.575 47.6584 121.161 47.5392C120.511 47.8968 119.978 48.3734 119.564 48.8501Z" fill="#D88C84"/>
<path d="M116.843 52.9614C117.494 53.1997 118.204 53.3785 118.854 53.6168C119.742 53.8551 120.688 54.1531 121.634 54.3914C123.409 54.8085 125.302 55.2256 127.313 55.5831C134.529 56.8939 141.982 57.2514 149.199 57.4898C149.968 57.4898 150.796 57.5493 151.565 57.5493C152.452 57.6089 153.339 57.6089 154.226 57.6685C157.184 57.7877 160.201 57.9069 163.158 58.0856C163.099 57.7281 162.981 57.3706 162.922 56.9535C162.862 56.7748 162.803 56.5364 162.803 56.3577C160.023 56.1789 157.243 56.0597 154.522 55.9406C153.576 55.881 152.629 55.881 151.683 55.8214C150.973 55.8214 150.263 55.7618 149.613 55.7618C142.337 55.5235 134.943 55.166 127.727 53.8551C125.834 53.4976 124.119 53.1401 122.403 52.723C121.457 52.4847 120.57 52.2464 119.682 52.008C118.973 51.8293 118.322 51.5909 117.671 51.3526C117.612 51.4122 117.553 51.5313 117.553 51.5909C117.257 52.1272 117.021 52.5443 116.843 52.9614Z" fill="#D88C84"/>
<path d="M114.3 58.4432C115.128 58.7411 115.956 58.9794 116.843 59.2773C117.612 59.5157 118.44 59.754 119.268 59.9924C120.865 60.4094 122.522 60.8265 124.237 61.184C132.045 62.8524 140.089 63.627 147.897 64.2824C148.666 64.342 149.494 64.4016 150.263 64.4612C151.151 64.5208 152.038 64.5803 152.925 64.6995C156.652 64.9974 160.437 65.3549 164.164 65.772C164.105 65.2358 164.105 64.6399 164.045 63.9845C160.437 63.5674 156.829 63.2695 153.28 62.9716C152.334 62.912 151.387 62.7928 150.441 62.7332C149.731 62.6737 149.021 62.6141 148.252 62.5545C140.385 61.8991 132.341 61.184 124.592 59.5157C122.936 59.1582 121.398 58.8007 119.919 58.3836C119.032 58.1452 118.144 57.9069 117.257 57.609C116.488 57.3707 115.719 57.1323 114.95 56.894C114.714 57.4302 114.536 57.9665 114.3 58.4432Z" fill="#D88C84"/>
<path d="M116.37 63.7461C116.37 64.4015 116.429 65.0569 116.488 65.5932C118.618 66.3082 120.865 66.9636 123.291 67.6191C131.808 69.8237 140.622 70.8366 149.14 71.9091C149.849 71.9687 150.5 72.0879 151.21 72.1475C151.328 71.6708 151.446 71.1941 151.624 70.6579C151.624 70.5983 151.624 70.5387 151.683 70.4791C150.914 70.3599 150.145 70.3004 149.376 70.1812C148.548 70.062 147.661 70.0024 146.833 69.8833C139.143 68.9299 131.276 67.917 123.705 65.9507C121.043 65.2953 118.618 64.5803 116.37 63.7461Z" fill="#D88C84"/>
<path d="M117.198 71.79C119.091 72.4454 121.102 73.0412 123.231 73.5775C131.69 75.8417 140.444 76.9738 148.962 78.0463C149.199 77.4505 149.435 76.9142 149.672 76.3779C149.553 76.3779 149.435 76.3183 149.258 76.3183C140.799 75.2458 132.045 74.1137 123.645 71.8495C121.457 71.2537 119.446 70.6579 117.553 70.0024L117.198 71.79Z" fill="#D88C84"/>
<path d="M115.956 77.0334C118.204 77.8676 120.688 78.5826 123.291 79.2976C131.099 81.383 139.202 82.5152 147.069 83.5281C147.247 82.9918 147.424 82.396 147.602 81.8597C139.675 80.8468 131.513 79.7147 123.705 77.6293C121.043 76.9142 118.618 76.1396 116.311 75.3651L115.956 77.0334Z" fill="#D88C84"/>
<path d="M125.893 44.2026C125.952 44.2026 125.952 44.2026 125.952 44.2026C126.899 44.3813 127.904 44.5601 128.91 44.7388C136.954 46.0497 145.176 46.2284 153.162 46.3476H154.049C154.581 46.3476 155.055 46.3476 155.587 46.4072C155.705 46.4072 155.883 46.4072 156.001 46.4072C155.232 45.9305 154.7 45.7517 154.7 45.7517C154.049 45.3347 153.339 44.9771 152.689 44.6792C144.94 44.5005 136.895 44.3217 129.147 43.0705C129.087 43.0705 128.969 43.0704 128.91 43.0109C127.431 43.4875 126.366 43.9642 125.893 44.2026Z" fill="#D88C84"/>
<path d="M164.045 72.0879L147.365 69.8833C147.365 69.8833 149.198 58.0856 149.494 55.7618" stroke="#382B31" stroke-width="0.2341" stroke-miterlimit="10" stroke-linecap="round" stroke-linejoin="round"/>
<path d="M148.134 65.1166L147.365 59.2773" stroke="#382B31" stroke-width="0.2341" stroke-miterlimit="10" stroke-linecap="round" stroke-linejoin="round"/>
<path d="M155.469 46.1093C155.469 46.1093 150.618 49.5056 149.672 53.6169" stroke="#382B31" stroke-width="0.2341" stroke-miterlimit="10" stroke-linecap="round" stroke-linejoin="round"/>
<path d="M164.164 70.4792L147.542 68.3937" stroke="#382B31" stroke-width="0.2341" stroke-miterlimit="10" stroke-linecap="round" stroke-linejoin="round"/>
<path d="M119.919 53.736C119.919 53.736 116.725 59.0986 116.429 62.1374C116.133 65.1762 116.37 75.3055 116.37 75.3055" stroke="#382B31" stroke-width="0.2341" stroke-miterlimit="10" stroke-linecap="round" stroke-linejoin="round"/>
<path d="M118.854 53.5573L117.553 58.2644" stroke="#382B31" stroke-width="0.2341" stroke-miterlimit="10" stroke-linecap="round" stroke-linejoin="round"/>
<path d="M129.206 43.13C129.206 43.13 122.167 46.5859 120.333 51.7101" stroke="#382B31" stroke-width="0.2341" stroke-miterlimit="10" stroke-linecap="round" stroke-linejoin="round"/>
<path d="M116.725 60.2307L114.181 58.9198" stroke="#382B31" stroke-width="0.2341" stroke-miterlimit="10" stroke-linecap="round" stroke-linejoin="round"/>
<path d="M148.311 43.1299C146.478 46.7645 143.579 49.8629 140.03 51.8292C138.197 52.9017 136.067 53.6763 133.938 53.5571C132.991 53.4975 131.986 53.2592 131.158 52.7229C130.33 52.1867 129.679 51.3525 129.501 50.3991C129.324 49.565 129.501 48.6712 129.738 47.7774C130.211 45.7516 130.862 43.7257 132.163 42.1169" stroke="#382B31" stroke-width="0.2341" stroke-miterlimit="10" stroke-linecap="round" stroke-linejoin="round"/>
<path d="M133.76 7.73706C134.056 7.14121 134.352 6.36662 134.825 5.88994C135.357 5.2941 135.535 5.53244 136.186 5.83036C137.546 6.54537 139.084 6.72412 140.622 6.96246C142.456 7.26038 144.407 7.61789 145.768 8.92874C146.359 9.465 146.774 10.18 147.188 10.8354C148.252 12.5634 149.317 14.2913 150.382 16.0193C150.855 16.7939 151.328 17.5684 151.683 18.4026C152.57 20.786 152.097 23.5269 150.737 25.6123C150.323 26.2677 149.849 26.8636 149.494 27.519C149.199 28.0553 149.021 28.7107 148.785 29.3065C148.666 29.6045 148.548 29.9024 148.371 30.1407C147.779 31.1536 146.714 31.8687 145.591 32.2857C144.467 32.6433 143.224 32.7624 142.041 32.7624C140.385 32.7624 138.552 32.5241 137.309 31.392C135.771 30.0215 135.535 27.6978 135.535 25.6719C135.535 25.0165 135.535 24.361 135.594 23.646C134.293 21.2627 133.287 18.7005 132.873 16.0193C132.4 13.2188 132.637 10.2992 133.76 7.73706Z" fill="#382B31"/>
<path d="M153.458 13.4572C154.522 12.3847 154.995 10.6567 154.404 9.28629C154.049 8.45211 153.398 7.79669 152.925 6.96251C152.334 5.83041 152.156 4.51956 151.565 3.38746C150.737 1.77869 148.903 0.825344 147.128 0.944513C146.3 1.0041 145.472 1.30201 144.644 1.42118C143.343 1.54035 142.041 1.24243 140.799 1.59994C139.912 1.89786 139.143 2.4937 138.552 3.20871C137.014 4.99623 136.304 7.3796 136.54 9.70338C136.659 10.5376 136.836 11.3717 137.369 12.0867C138.256 13.2784 139.735 13.7551 141.154 14.053C142.574 14.3509 144.112 14.4701 145.354 15.2447C146.774 16.0789 148.016 16.9726 149.554 15.781C150.737 14.8276 152.334 14.5297 153.458 13.4572Z" fill="#382B31"/>
<path d="M124.947 18.5218C124.415 19.1176 124.119 19.7135 123.882 20.3093C123.705 20.9052 123.587 21.5606 123.527 22.1564C123.527 22.7523 123.527 23.4077 123.705 24.0631C123.764 24.361 123.941 24.7185 124.119 25.0165C124.296 25.3144 124.474 25.5527 124.651 25.7315C125.42 26.5657 126.071 27.2211 126.13 28.1148C126.189 29.0086 125.657 30.0811 124.77 30.5578C124.71 30.6174 124.651 30.677 124.71 30.7365C124.71 30.7961 124.829 30.7961 124.888 30.7961C125.953 30.4386 126.781 29.4257 126.958 28.1744C127.017 27.8765 127.017 27.5786 126.958 27.2211C126.899 26.9232 126.781 26.6252 126.662 26.3273C126.426 25.7911 126.071 25.3144 125.834 24.8973C125.716 24.659 125.598 24.4802 125.538 24.3015C125.479 24.1227 125.42 23.944 125.42 23.7056C125.361 23.2885 125.42 22.8118 125.479 22.3948C125.657 21.501 126.13 20.6072 126.603 20.2497C127.136 19.8922 127.254 19.1176 126.899 18.5814C126.544 18.0451 125.775 17.926 125.243 18.2835C125.124 18.343 125.065 18.4026 124.947 18.5218Z" fill="#382B31"/>
<path d="M131.749 50.8164C138.552 55.4044 147.602 43.0705 147.602 43.0705C147.602 43.0705 144.881 39.7934 143.638 36.7546C142.337 33.7158 143.698 29.1874 143.698 29.1874L133.169 34.7883C133.169 34.7883 133.169 35.3841 133.169 36.3971C133.11 37.3504 133.05 38.6017 132.814 40.0913C132.577 41.7 132.104 43.5472 131.631 45.4538C130.33 50.0418 131.749 50.8164 131.749 50.8164Z" fill="#FF99A8"/>
<path d="M132.814 40.0913C134.234 39.3167 137.664 37.1716 138.847 33.1795C138.847 33.1795 136.895 35.6224 133.169 36.397C133.11 37.3504 132.991 38.6017 132.814 40.0913Z" fill="#FF5D80"/>
<path d="M124.119 21.6798C124.119 22.1565 124.119 22.5736 124.119 23.0502C124.237 26.3274 124.947 29.5449 126.13 31.9283C127.076 33.9541 128.378 35.4437 129.916 35.98C133.879 37.41 138.256 35.0862 141.095 32.3454C141.509 31.9283 141.864 31.5708 142.219 31.1537C142.81 30.4983 143.225 29.8428 143.579 29.1874C145.472 25.6719 148.134 11.3122 138.315 6.96251C138.315 6.96251 129.738 4.87706 125.953 12.5634C124.888 14.768 124.296 17.5089 124.119 20.2498C124.178 20.786 124.119 21.2031 124.119 21.6798Z" fill="#FF99A8"/>
<path opacity="0.56" d="M132.518 27.102C131.986 30.0216 133.879 32.8817 136.836 33.4179C139.794 33.9542 142.633 32.0475 143.165 29.1279C143.698 26.2082 141.805 23.3482 138.847 22.8119C135.89 22.2161 133.051 24.1228 132.518 27.102Z" fill="url(#paint0_linear)"/>
<path opacity="0.56" d="M124.178 22.9907C124.296 26.2679 125.006 29.4854 126.189 31.8688C126.899 31.1538 127.431 30.2004 127.668 29.0683C127.964 27.4 127.49 25.7912 126.485 24.5995C126.248 24.3016 125.952 24.0632 125.657 23.8249C125.183 23.4674 124.71 23.2291 124.178 22.9907Z" fill="url(#paint1_linear)"/>
<path d="M132.4 29.9025C131.808 30.6175 130.862 31.0942 129.916 31.1537C129.442 31.1537 128.969 31.0942 128.555 30.975" stroke="#382B31" stroke-width="0.3603" stroke-miterlimit="10" stroke-linecap="round" stroke-linejoin="round"/>
<path d="M131.513 31.9879C131.217 32.2858 130.803 32.4049 130.389 32.4049" stroke="#382B31" stroke-width="0.2396" stroke-miterlimit="10" stroke-linecap="round" stroke-linejoin="round"/>
<path d="M127.372 21.1436C127.372 21.1436 129.028 24.8378 128.082 27.2212C128.082 27.2212 127.372 28.9491 129.738 29.3662" stroke="#382B31" stroke-width="0.4161" stroke-miterlimit="10" stroke-linecap="round" stroke-linejoin="round"/>
<path d="M125.598 24.0632C125.598 24.4207 125.834 24.7187 126.189 24.7187C126.544 24.7187 126.781 24.4803 126.84 24.1228C126.84 23.7653 126.603 23.4674 126.248 23.4674C125.893 23.4078 125.598 23.7057 125.598 24.0632Z" fill="#382B31"/>
<path d="M132.636 23.2886C132.577 23.6461 132.814 24.0632 133.169 24.1228C133.524 24.1824 133.938 23.944 133.997 23.5865C134.056 23.229 133.819 22.8119 133.465 22.7524C133.11 22.6332 132.696 22.8715 132.636 23.2886Z" fill="#382B31"/>
<path d="M136.955 21.4415C136.659 20.9052 136.186 20.4285 135.594 20.1306C135.062 19.8327 134.411 19.5943 133.76 19.5943C133.11 19.5348 132.459 19.6539 131.868 19.8923C131.276 20.1306 130.744 20.4881 130.389 21.0244C130.33 21.084 130.389 21.2031 130.448 21.2031C130.507 21.2031 130.507 21.2627 130.566 21.2031C131.158 21.0839 131.69 21.0244 132.163 20.9648C132.696 20.9052 133.169 20.9648 133.642 20.9648C134.115 21.0244 134.648 21.0839 135.121 21.2031C135.594 21.3223 136.126 21.501 136.659 21.6798C136.777 21.7394 136.895 21.6798 136.955 21.5606C136.955 21.5606 136.955 21.501 136.955 21.4415Z" fill="#382B31"/>
<path d="M124.119 21.6798C124.237 21.6798 124.355 21.6798 124.474 21.6798C125.006 21.6798 125.538 21.7394 126.071 21.799C126.189 21.799 126.307 21.7394 126.307 21.6202C126.307 21.5606 126.307 21.5011 126.248 21.4415C125.834 20.9648 125.243 20.6669 124.651 20.4881C124.474 20.4285 124.296 20.4285 124.119 20.369C124.178 20.786 124.119 21.2031 124.119 21.6798Z" fill="#382B31"/>
<path d="M141.746 22.4544C141.746 22.4544 146.478 18.7006 148.134 23.3481C149.79 27.9957 144.408 29.8428 142.278 29.247L141.746 22.4544Z" fill="#FF99A8"/>
<path d="M143.52 22.8118C143.993 22.0967 144.999 22.0372 145.65 22.4542C146.123 22.7522 146.478 23.2288 146.714 23.7651C147.128 24.778 147.01 26.0889 146.359 26.9231C145.413 28.1743 143.875 27.9956 142.751 27.1018" stroke="#382B31" stroke-width="0.2136" stroke-miterlimit="10" stroke-linecap="round" stroke-linejoin="round"/>
<path d="M144.94 22.1565C144.112 23.8844 143.993 25.9103 144.467 27.7574" stroke="#382B31" stroke-width="0.2136" stroke-miterlimit="10" stroke-linecap="round" stroke-linejoin="round"/>
<path d="M141.805 20.6073C142.337 21.0244 142.751 21.6798 142.811 22.4544C142.87 22.8119 142.811 23.229 142.692 23.5865C142.574 23.944 142.396 24.3015 142.101 24.7186C141.805 25.1357 141.509 25.6124 141.273 26.1486C141.036 26.6849 140.977 27.3403 141.095 27.9362C141.332 29.0682 142.101 30.0812 143.165 30.4387C143.284 30.4983 143.461 30.4387 143.52 30.2599C143.579 30.1408 143.52 30.0216 143.402 29.962C142.574 29.5449 142.101 28.6512 142.101 27.817C142.042 26.9232 142.574 26.3274 143.284 25.5528C143.639 25.1953 143.994 24.7186 144.289 24.1228C144.526 23.5269 144.703 22.9311 144.703 22.2757C144.762 21.0244 144.348 19.7135 143.402 18.7006L143.343 18.641C142.87 18.1643 142.16 18.1643 141.687 18.5814C141.213 19.0581 141.213 19.7731 141.628 20.2498C141.687 20.4881 141.746 20.5477 141.805 20.6073Z" fill="#382B31"/>
<path d="M121.812 20.1305L130.271 20.3689C130.625 18.9389 131.986 13.9338 133.642 12.2654C133.642 12.2654 131.986 18.0451 131.69 20.4285L136.008 20.5476L138.078 13.2188L137.96 20.786L145.827 21.8585C145.827 21.8585 148.726 10.18 140.326 7.31994C140.09 7.26035 135.18 3.44697 128.437 6.54534C121.575 9.58414 121.812 20.1305 121.812 20.1305Z" fill="#382B31"/>
<path d="M121.457 54.6298L123.172 55.8811L134.233 38.6017L134.411 38.3633L134.707 37.9463L134.943 37.5888C135.239 37.1121 135.121 36.5162 134.707 36.1587C134.529 36.0396 134.293 35.98 134.115 35.98C133.76 35.98 133.464 36.1587 133.228 36.4567L133.05 36.7546L132.814 37.1717L132.636 37.41L121.457 54.6298Z" fill="#575369"/>
<path d="M120.688 57.5494L121.339 57.1323L123.172 55.8811L121.457 54.6298L120.865 56.8344L120.688 57.5494Z" fill="#F0E6EF"/>
<path d="M120.687 57.5495L121.339 57.1324L120.865 56.8345L120.687 57.5495Z" fill="#575369"/>
<path d="M132.931 36.755C133.464 37.1721 134.233 37.7083 134.647 38.0063L134.883 37.6487C135.179 37.1721 135.061 36.5762 134.647 36.2187C134.469 36.0996 134.233 36.04 134.055 36.04C133.7 36.04 133.405 36.2187 133.168 36.5167L132.931 36.755Z" fill="#FFCDB2"/>
<path d="M132.518 37.3504L134.233 38.6017L134.352 38.3633L132.695 37.1121L132.518 37.3504Z" fill="#FFCDB2"/>
<path d="M133.938 38.2441L122.817 55.7023" stroke="#FFCDB2" stroke-width="0.2341" stroke-miterlimit="10"/>
<path d="M133.345 37.9462L122.225 55.166" stroke="#FFCDB2" stroke-width="0.2341" stroke-miterlimit="10"/>
<path d="M132.873 37.4696L121.812 54.8682" stroke="#FFCDB2" stroke-width="0.2341" stroke-miterlimit="10"/>
<path d="M162.33 71.9688C162.33 71.9688 156.356 94.1341 150.204 95.3258C150.204 95.3258 148.371 97.1133 142.16 89.7845C135.949 82.4556 128.2 63.8058 128.2 63.8058L131.808 61.4224C131.808 61.4224 138.906 68.8109 141.213 70.9559C143.52 73.1009 147.602 76.4972 147.602 76.4972L149.199 70.1813L162.33 71.9688Z" fill="#FF99A8"/>
<path d="M131.808 61.4224C131.808 61.4224 131.927 55.2256 131.749 52.7827C131.513 50.3397 131.453 48.1947 130.921 47.3605C130.33 46.5264 128.141 43.7259 127.549 43.8451C126.899 43.9642 125.952 45.0367 125.952 45.0367C125.952 45.0367 124.592 44.5601 123.764 45.3943C122.936 46.2284 121.989 49.6247 121.871 50.4589C121.753 51.2931 124 53.6169 124.178 53.6764C124.414 53.736 124.06 58.5623 125.183 59.9924C126.307 61.4224 128.318 63.7462 128.318 63.7462L131.808 61.4224Z" fill="#FF99A8"/>
<path d="M152.984 82.5152C152.984 82.5152 149.672 78.2251 147.602 76.5568" stroke="#382B31" stroke-width="0.2341" stroke-miterlimit="10" stroke-linecap="round" stroke-linejoin="round"/>
<path d="M129.561 47.6585C129.561 47.6585 126.544 45.573 125.775 45.1559C125.006 44.7389 124.296 45.0368 124 45.2751C123.468 45.6922 122.817 47.003 122.817 47.003C122.817 47.003 121.694 50.161 121.753 50.7568C121.812 51.3527 123.941 53.6765 124.178 53.8552" stroke="#382B31" stroke-width="0.2341" stroke-miterlimit="10" stroke-linecap="round" stroke-linejoin="round"/>
<path d="M127.49 49.2672C127.49 49.2672 124.533 46.7051 122.995 46.7647" stroke="#382B31" stroke-width="0.2341" stroke-miterlimit="10" stroke-linecap="round" stroke-linejoin="round"/>
<path d="M123.291 49.5652C123.291 49.5652 124.355 50.4589 124.474 51.174C124.592 51.889 123.764 54.5703 124.237 57.2515C124.71 59.9328 125.065 60.2307 125.952 61.3033" stroke="#382B31" stroke-width="0.2341" stroke-miterlimit="10" stroke-linecap="round" stroke-linejoin="round"/>
<path d="M124.237 50.6376L123.35 50.9356" stroke="#382B31" stroke-width="0.2341" stroke-miterlimit="10" stroke-linecap="round" stroke-linejoin="round"/>
<path d="M131.631 51.5312C131.631 51.5312 131.572 48.4924 130.862 47.4199C130.211 46.3474 128.2 43.8448 127.49 43.9044C126.781 44.0236 125.775 45.1557 125.775 45.1557" stroke="#382B31" stroke-width="0.2341" stroke-miterlimit="10" stroke-linecap="round" stroke-linejoin="round"/>
<path d="M106.137 60.3499L104.776 59.5753L94.4842 66.3083L94.1884 67.7979L106.137 60.3499Z" fill="white"/>
<path d="M96.0812 66.6658L94.1884 67.7979L95.1348 68.3342L116.429 80.966L126.899 74.3522L128.318 72.6838L106.137 60.3499L103.948 61.7203L96.0812 66.6658Z" fill="#8093F1"/>
<path d="M91.8224 59.3965L93.6561 65.8316L94.1885 67.7979L94.4251 67.5596L95.963 66.4275L96.1996 66.1891L95.7855 65.057V64.9974L92.8872 57.3707L91.8224 59.3965Z" fill="white"/>
<path d="M92.8872 57.3707L100.873 62.3757L95.7856 65.5933L92.8872 57.3707Z" fill="white"/>
<path d="M91.8225 59.3966L93.6561 65.8317L94.1885 67.7979L94.4843 67.6192H94.4251V67.5596L94.3068 67.0233L93.9519 65.7721L91.9999 59.0391L91.8225 59.3966Z" fill="#8093F1"/>
<path d="M126.958 74.3522L103.889 61.7203L104.776 59.5753L128.318 72.6838L126.958 74.3522Z" fill="white"/>
<path d="M96.1404 66.6063C96.1404 66.6063 94.9574 65.2954 93.8335 65.5933L94.425 67.6192L96.1404 66.6063Z" fill="#FFCDB2"/>
<path d="M104.776 59.754L128.2 72.9221" stroke="#FFCDB2" stroke-width="0.1405" stroke-miterlimit="10" stroke-linecap="round" stroke-linejoin="round"/>
<path d="M104.717 59.754L94.6025 66.3083" stroke="#FFCDB2" stroke-width="0.1405" stroke-miterlimit="10" stroke-linecap="round" stroke-linejoin="round"/>
<path d="M92.8872 57.4301L95.0758 65.9506" stroke="#FFCDB2" stroke-width="0.1405" stroke-miterlimit="10" stroke-linecap="round" stroke-linejoin="round"/>
<path d="M127.963 73.1605L104.717 60.1712L94.6612 66.4275" stroke="#FFCDB2" stroke-width="0.1405" stroke-miterlimit="10" stroke-linecap="round" stroke-linejoin="round"/>
<path d="M127.726 73.518L104.421 60.5883L94.5425 66.7254" stroke="#FFCDB2" stroke-width="0.1405" stroke-miterlimit="10" stroke-linecap="round" stroke-linejoin="round"/>
<path d="M127.372 73.8755L104.244 61.0649L95.0758 66.6062" stroke="#FFCDB2" stroke-width="0.1405" stroke-miterlimit="10" stroke-linecap="round" stroke-linejoin="round"/>
<path d="M127.195 74.1735L104.067 61.4821L95.7856 66.5467" stroke="#FFCDB2" stroke-width="0.1405" stroke-miterlimit="10" stroke-linecap="round" stroke-linejoin="round"/>
<path d="M92.7098 57.6686L94.8392 66.1892" stroke="#FFCDB2" stroke-width="0.1405" stroke-miterlimit="10" stroke-linecap="round" stroke-linejoin="round"/>
<path d="M92.5323 58.0261L94.4843 66.0104" stroke="#FFCDB2" stroke-width="0.1405" stroke-miterlimit="10" stroke-linecap="round" stroke-linejoin="round"/>
<path d="M92.3549 58.324L94.366 66.3083" stroke="#FFCDB2" stroke-width="0.1405" stroke-miterlimit="10" stroke-linecap="round" stroke-linejoin="round"/>
<path d="M92.2365 58.7411L94.1885 66.3083" stroke="#FFCDB2" stroke-width="0.1405" stroke-miterlimit="10" stroke-linecap="round" stroke-linejoin="round"/>
<path d="M108.148 69.7046C108.621 69.2875 109.272 69.2875 109.745 69.645C111.461 71.0155 115.01 73.3988 114.181 75.4843C113.767 76.4972 111.638 80.1914 110.218 80.251C108.799 80.3106 102.233 77.5101 101.937 77.093C101.405 76.4376 106.019 71.5517 108.148 69.7046Z" fill="#FF99A8"/>
<path d="M104.126 73.6968C104.126 73.6968 102.765 72.2667 102.706 71.4921C102.647 70.7175 103.179 66.785 102.233 66.4871C101.287 66.1892 100.104 69.8238 99.8079 71.1346C99.5121 72.4455 101.227 76.6164 101.878 77.093C102.529 77.5697 103.593 77.0335 103.593 77.0335L104.126 73.6968Z" fill="#FF99A8"/>
<path d="M111.046 70.7176C111.046 70.7176 107.556 75.4843 105.9 76.9739" stroke="#382B31" stroke-width="0.2341" stroke-miterlimit="10" stroke-linecap="round" stroke-linejoin="round"/>
<path d="M113.412 72.9222C113.412 72.9222 109.923 77.6294 108.266 78.5231" stroke="#382B31" stroke-width="0.2341" stroke-miterlimit="10" stroke-linecap="round" stroke-linejoin="round"/>
<path d="M108.325 69.5259C108.325 69.5259 104.362 73.3989 103.002 74.8885" stroke="#382B31" stroke-width="0.2341" stroke-miterlimit="10" stroke-linecap="round" stroke-linejoin="round"/>
<path d="M112.289 78.5827C112.289 78.5827 110.277 80.3106 109.154 80.1319C107.971 79.9531 107.971 79.4765 107.616 79.4169C107.261 79.2977 105.486 79.119 104.54 78.4635C103.593 77.8081 102.233 77.8081 101.76 76.9739" stroke="#382B31" stroke-width="0.2341" stroke-miterlimit="10" stroke-linecap="round" stroke-linejoin="round"/>
<path d="M112.052 78.7615L113.176 81.1448" stroke="#382B31" stroke-width="0.2341" stroke-miterlimit="10" stroke-linecap="round" stroke-linejoin="round"/>
<path d="M176.348 77.8676L129.441 87.2819C126.425 87.8778 124.355 90.559 124.414 93.6574L125.478 162L145.116 164.265L197.524 144.006V83.4685C197.524 82.2173 196.637 81.1447 195.395 80.966L176.348 77.8676Z" fill="#EFC3E6"/>
<path d="M125.065 150.441L125.479 162.179" stroke="#382B31" stroke-width="0.2341" stroke-miterlimit="10" stroke-linecap="round" stroke-linejoin="round"/>
<path d="M124.415 92.8829L125.184 153.778" stroke="#382B31" stroke-width="0.2341" stroke-miterlimit="10" stroke-linecap="round" stroke-linejoin="round"/>
<path d="M126.544 89.6653C133.11 89.8441 137.724 90.3208 140.444 91.1549C143.284 91.9891 145.177 94.6704 145.177 97.6496V153.242V164.92" stroke="#382B31" stroke-width="0.2341" stroke-miterlimit="10" stroke-linecap="round" stroke-linejoin="round"/>
<path d="M197.524 82.6343L144.88 94.9683" stroke="#382B31" stroke-width="0.2341" stroke-miterlimit="10" stroke-linecap="round" stroke-linejoin="round"/>
<path d="M198.235 134.294L145.177 153.242L41.3671 138.167" stroke="#382B31" stroke-width="0.2341" stroke-miterlimit="10" stroke-linecap="round" stroke-linejoin="round"/>
<path d="M163.809 133.936C146.528 133.936 132.518 131.055 132.518 127.501C132.518 123.947 146.528 121.066 163.809 121.066C181.09 121.066 195.1 123.947 195.1 127.501C195.1 131.055 181.09 133.936 163.809 133.936Z" fill="#575369"/>
<path d="M178.537 127.322L192.674 184.881" stroke="#575369" stroke-width="1.8374" stroke-miterlimit="10" stroke-linecap="round" stroke-linejoin="round"/>
<path d="M149.554 127.441L135.358 184.999" stroke="#575369" stroke-width="1.8374" stroke-miterlimit="10" stroke-linecap="round" stroke-linejoin="round"/>
<path d="M182.146 141.861H145.768" stroke="#575369" stroke-width="1.8374" stroke-miterlimit="10"/>
<path d="M178.005 132.149L179.661 141.623" stroke="#575369" stroke-width="0.9187" stroke-miterlimit="10"/>
<path d="M175.52 132.804L176.171 141.742" stroke="#575369" stroke-width="0.9187" stroke-miterlimit="10"/>
<path d="M172.859 133.162V141.861" stroke="#575369" stroke-width="0.9187" stroke-miterlimit="10"/>
<path d="M170.256 133.162V141.861" stroke="#575369" stroke-width="0.9187" stroke-miterlimit="10"/>
<path d="M167.654 133.162V141.861" stroke="#575369" stroke-width="0.9187" stroke-miterlimit="10"/>
<path d="M165.051 133.162V141.861" stroke="#575369" stroke-width="0.9187" stroke-miterlimit="10"/>
<path d="M162.508 133.162V141.861" stroke="#575369" stroke-width="0.9187" stroke-miterlimit="10"/>
<path d="M159.905 133.162V141.861" stroke="#575369" stroke-width="0.9187" stroke-miterlimit="10"/>
<path d="M157.302 133.162V141.861" stroke="#575369" stroke-width="0.9187" stroke-miterlimit="10"/>
<path d="M154.7 133.162V141.861" stroke="#575369" stroke-width="0.9187" stroke-miterlimit="10"/>
<path d="M152.57 132.864L151.446 141.742" stroke="#575369" stroke-width="0.9187" stroke-miterlimit="10"/>
<path d="M150.441 132.804L148.43 141.742" stroke="#575369" stroke-width="0.9187" stroke-miterlimit="10"/>
<path d="M174.338 112.784C174.338 112.784 175.876 122.198 169.132 126.429C168.659 126.727 168.127 126.846 167.595 126.846H160.082C159.313 126.846 158.545 126.488 158.012 125.952C156.474 124.224 153.576 120.113 153.812 112.903C153.812 112.903 174.456 112.844 174.338 112.784Z" fill="#FFF5FF"/>
<path d="M155.055 115.942C155.055 115.942 153.339 113.439 150.855 114.571C148.371 115.763 148.666 124.462 156.297 122.973" stroke="#FFF3FE" stroke-width="1.8367" stroke-miterlimit="10"/>
<path d="M153.752 113.022C153.752 113.141 153.989 113.261 154.403 113.38C155.882 113.737 159.667 113.976 164.104 113.976C168.481 113.976 172.266 113.737 173.745 113.38C174.218 113.261 174.455 113.141 174.455 113.022C174.455 112.486 169.841 112.069 164.104 112.069C158.425 112.069 153.752 112.486 153.752 113.022Z" fill="#B57F9B"/>
<path d="M154.404 113.32C155.883 113.678 159.668 113.916 164.105 113.916C168.482 113.916 172.267 113.678 173.746 113.32C172.741 112.903 168.778 112.605 164.046 112.605C159.432 112.605 155.469 112.903 154.404 113.32Z" fill="#575369"/>
<defs>
<linearGradient id="paint0_linear" x1="144.202" y1="36.3361" x2="133.51" y2="22.7328" gradientUnits="userSpaceOnUse">
<stop offset="0.00372349" stop-color="#FF99A8" stop-opacity="0"/>
<stop offset="1" stop-color="#FF5D80" stop-opacity="0.6"/>
</linearGradient>
<linearGradient id="paint1_linear" x1="130.593" y1="32.0211" x2="121.739" y2="24.2853" gradientUnits="userSpaceOnUse">
<stop offset="0.00372349" stop-color="#FF99A8" stop-opacity="0"/>
<stop offset="1" stop-color="#FF5D80" stop-opacity="0.6"/>
</linearGradient>
</defs>
</svg>
