<svg width="20" height="20" viewBox="0 0 20 20" fill="none" xmlns="http://www.w3.org/2000/svg">
<path d="M18.9704 7.77778H17.0993C16.7985 7.77778 16.5507 7.61222 16.4356 7.33444C16.3204 7.05667 16.3789 6.76407 16.5911 6.55148L17.9141 5.22889C18.1085 5.03444 18.2156 4.77556 18.2156 4.50074C18.2156 4.22556 18.1085 3.96704 17.9141 3.77222L16.2278 2.08593C15.8389 1.69704 15.1607 1.6963 14.7711 2.08593L13.4485 3.40852C13.2726 3.58444 13.0793 3.62111 12.9478 3.62111C12.7626 3.62111 12.5785 3.54852 12.4426 3.42148C12.3422 3.32741 12.2222 3.16074 12.2222 2.90074V1.02963C12.2222 0.461852 11.7604 0 11.1926 0H8.80741C8.23963 0 7.77778 0.461852 7.77778 1.02963V2.90074C7.77778 3.35185 7.40852 3.62111 7.05148 3.62111C6.92037 3.62111 6.72704 3.58407 6.55111 3.40852L5.22852 2.08593C4.83889 1.6963 4.16074 1.69704 3.77185 2.08593L2.08556 3.77222C1.89111 3.96667 1.78407 4.22556 1.78407 4.50074C1.78407 4.77556 1.89111 5.03407 2.08556 5.22889L3.40852 6.55148C3.62074 6.76407 3.67889 7.05667 3.56407 7.33444C3.44926 7.61222 3.20148 7.77778 2.90074 7.77778H1.02963C0.461852 7.77778 0 8.23963 0 8.80741V11.1919C0 11.76 0.461852 12.2222 1.02963 12.2222H2.90074C3.20148 12.2222 3.44926 12.3878 3.56444 12.6656C3.67963 12.9433 3.62111 13.2359 3.40889 13.4485L2.08593 14.7711C1.89148 14.9656 1.78444 15.2244 1.78444 15.4993C1.78444 15.7744 1.89148 16.033 2.08593 16.2278L3.77222 17.9141C4.16148 18.3033 4.83926 18.3041 5.22889 17.9141L6.55148 16.5915C6.72741 16.4156 6.92074 16.3789 7.05222 16.3789C7.40889 16.3789 7.77815 16.6485 7.77815 17.0993V18.97C7.77778 19.5378 8.23963 20 8.80741 20H11.1922C11.76 20 12.2219 19.5378 12.2219 18.97V17.0993C12.2219 16.6481 12.5911 16.3789 12.9478 16.3789C13.0789 16.3789 13.2726 16.4159 13.4485 16.5915L14.7711 17.9141C15.1607 18.3037 15.8389 18.303 16.2278 17.9141L17.9141 16.2278C18.1085 16.0333 18.2156 15.7744 18.2156 15.4993C18.2156 15.2244 18.1085 14.9659 17.9141 14.7711L16.5911 13.4485C16.3789 13.2359 16.3207 12.9433 16.4356 12.6656C16.5504 12.3878 16.7985 12.2222 17.0993 12.2222H18.9704C19.5381 12.2222 20 11.76 20 11.1922V8.80741C20 8.23963 19.5381 7.77778 18.9704 7.77778ZM12.5926 10C12.5926 11.4293 11.4293 12.5926 10 12.5926C8.57074 12.5926 7.40741 11.4293 7.40741 10C7.40741 8.57074 8.57074 7.40741 10 7.40741C11.4293 7.40741 12.5926 8.57074 12.5926 10Z" fill="#EF8BBD"/>
</svg>
