<svg width="48" height="48" viewBox="0 0 48 48" fill="none" xmlns="http://www.w3.org/2000/svg">
<g clip-path="url(#clip0)">
<path d="M23.9906 12.938C23.8767 10.8901 22.7309 9.02907 20.934 8.00898L7.15296 0.185351C6.21546 -0.346868 5.05249 0.330288 5.05249 1.40832V18.1277H23.9906V12.9369" fill="#F9F2F2"/>
<path d="M24.0094 12.9369C24.1236 10.8894 25.2693 9.02888 27.066 8.00898L40.8471 0.185351C41.7846 -0.346868 42.9475 0.330288 42.9475 1.40832V16.6973H24.0094V12.9369Z" fill="#E7EFFA"/>
<path d="M29.971 48L47.2736 38.4427C47.7218 38.1952 47.9999 37.7237 47.9999 37.2117V6.36882C47.9999 5.2981 46.851 4.62019 45.9137 5.13788L29.9709 13.9441V48H29.971Z" fill="#E068BD"/>
<path d="M18.029 48L0.726281 38.4427C0.278156 38.1952 0 37.7237 0 37.2117V6.36882C0 5.2981 1.14891 4.62019 2.08622 5.13788L18.029 13.9441V48Z" fill="#EF8BBD"/>
<path d="M18.0289 13.944H29.971V48H18.0289V13.944Z" fill="#E068BD"/>
<path d="M24.0093 13.944H29.971V48H24.0093V13.944Z" fill="#AB4C8F"/>
<path d="M18.0289 40.6187H29.971V43.4312H18.0289V40.6187Z" fill="#FFE278"/>
<path d="M24.0093 40.6187H29.971V43.4312H24.0093V40.6187Z" fill="#FFC178"/>
<path d="M18.0289 18.7099H29.971V21.5224H18.0289V18.7099Z" fill="#FFE278"/>
<path d="M24.0093 18.7099H29.971V21.5224H24.0093V18.7099Z" fill="#FFC178"/>
</g>
<defs>
<clipPath id="clip0">
<rect width="48" height="48" fill="white"/>
</clipPath>
</defs>
</svg>
