<svg width="20" height="20" viewBox="0 0 20 20" fill="none" xmlns="http://www.w3.org/2000/svg">
<g clip-path="url(#clip0)">
<path d="M12.5297 10.786L10.4409 8.39889C10.2075 8.13209 9.79246 8.13209 9.55902 8.39889L7.47027 10.786C7.13878 11.1649 7.40781 11.7578 7.91125 11.7578H8.82812V18.2031C8.82812 18.5267 9.09047 18.7891 9.41406 18.7891H10.5859C10.9095 18.7891 11.1719 18.5267 11.1719 18.2031V11.7578H12.0888C12.5922 11.7578 12.8612 11.1649 12.5297 10.786Z" fill="#EF8BBD"/>
<path d="M16.4373 5.93367C16.4427 5.85703 16.4453 5.78016 16.4453 5.70312C16.4453 3.8723 14.9558 2.38281 13.125 2.38281C12.4886 2.38281 11.8758 2.56277 11.3483 2.89809C10.4264 1.83195 9.08656 1.21094 7.65625 1.21094C4.96387 1.21094 2.77344 3.40137 2.77344 6.09375C2.77344 6.10203 2.77344 6.11035 2.77348 6.11863C1.13984 6.67851 0 8.23719 0 10C0 12.2616 1.83996 14.1016 4.10156 14.1016H7.65625V12.9118C7.06578 12.8282 6.56352 12.4557 6.31055 11.8982C6.02184 11.262 6.12828 10.5401 6.5884 10.0143L8.67715 7.62723C9.01094 7.2457 9.49312 7.02695 10 7.02695C10.507 7.02695 10.9891 7.24574 11.3229 7.62723L13.4116 10.0143C13.8717 10.5401 13.9782 11.262 13.6895 11.8982C13.4365 12.4557 12.9343 12.8281 12.3438 12.9118V14.1016H15.8985C18.1601 14.1016 20 12.2616 20 10C20 7.92102 18.4452 6.19836 16.4373 5.93367Z" fill="#EF8BBD"/>
</g>
<defs>
<clipPath id="clip0">
<rect width="20" height="20" fill="white"/>
</clipPath>
</defs>
</svg>
