<svg width="50" height="51" viewBox="0 0 50 51" fill="none" xmlns="http://www.w3.org/2000/svg">
<ellipse cx="25" cy="25.168" rx="25" ry="25.168" fill="#AD83E8"/>
<path d="M18.8178 6.4864C18.8178 6.4864 14.5418 10.1672 14.3619 16.2372C14.1871 22.3072 17.5072 24.9109 14.4235 27.5196C11.345 30.1232 4.48899 32.9464 8.6468 39.971H25.5813V7.74227L18.8178 6.4864Z" fill="#3B2539"/>
<path d="M32.1804 6.4864C32.1804 6.4864 36.4564 10.1672 36.6363 16.2372C36.811 22.3072 33.4909 24.9109 36.5746 27.5196C39.6583 30.1283 46.5092 32.9515 42.3565 39.9761H25.4168V7.74227L32.1804 6.4864Z" fill="#3B2539"/>
<path d="M14.8142 42.9984H13.776C12.9742 41.2422 11.6328 38.2098 11.0007 36.2137C11.1343 36.1473 11.2731 36.0809 11.417 36.0095C11.8795 37.1939 13.4059 40.941 14.8142 42.9984Z" fill="#A73034"/>
<path d="M35.3103 42.9984H36.3485C37.1502 41.2422 38.6252 37.9545 39.2574 35.9533C39.1238 35.8869 39.021 35.841 38.8822 35.7695C38.4145 36.959 36.7185 40.941 35.3103 42.9984Z" fill="#A73034"/>
<path d="M23.3765 42.9984H14.8964C13.4676 40.89 12.1468 37.8269 11.417 36.0094C11.0469 35.0905 10.8311 34.4881 10.8311 34.4881C13.0205 32.7677 18.0263 32.6452 18.0263 32.6452C19.8097 35.0139 22.107 40.0578 23.3765 42.9984Z" fill="#DD504F"/>
<path d="M26.825 42.9984H35.3051C36.7339 40.89 38.0547 37.8269 38.7846 36.0095C39.1546 35.0905 39.3704 34.4881 39.3704 34.4881C37.181 32.7677 32.0416 32.3746 32.0416 32.3746C30.2633 34.7434 28.0996 40.0578 26.825 42.9984Z" fill="#DD504F"/>
<path d="M32.0416 32.3695C31.9388 33.2782 31.7178 34.8557 31.3067 36.5302C30.6694 39.144 29.5644 42.008 27.7039 42.9933H24.6408C22.0813 41.9365 20.3339 38.9092 19.2598 36.3311C18.5968 34.7383 18.1959 33.3139 18.0212 32.635C19.7018 31.762 20.9198 31.1187 20.9198 31.1187L21.2179 31.1851C23.9778 31.7977 26.8456 31.7773 29.5952 31.1187C29.5952 31.1289 30.5974 31.6395 32.0416 32.3695Z" fill="#ECB6A0"/>
<path d="M31.3118 36.5353C30.6745 39.1491 29.5695 42.0131 27.709 42.9984H24.6459C22.0865 41.9416 20.3391 38.9143 19.2649 36.3362C20.6063 36.8876 22.6056 37.3879 25.4374 37.3879C27.9249 37.3879 29.8676 36.9999 31.3118 36.5353Z" fill="#FCF6F0"/>
<path d="M29.7905 32.1091C29.7905 32.1091 29.0299 34.4881 25.5299 34.4881C21.4492 34.4881 20.4881 32.3286 20.4881 32.3286C20.8427 31.3944 21.0843 30.5316 21.2488 29.7556C21.552 28.3415 21.5931 27.2286 21.5777 26.5445L28.7472 26.2637C28.814 26.8661 28.922 27.5758 29.0453 28.2905C29.3691 30.1845 29.7905 32.1091 29.7905 32.1091Z" fill="#ECB6A0"/>
<path d="M25.5813 35.5857C23.4381 35.5857 22.0402 34.4983 21.2436 33.5794C20.3853 32.5941 20.0307 31.619 20.0153 31.5782C19.9896 31.5067 20.0255 31.425 20.1026 31.3995C20.1746 31.374 20.2568 31.4097 20.2825 31.4863C20.2877 31.4965 20.6371 32.4563 21.4646 33.4058C22.5696 34.6668 23.9521 35.3049 25.5813 35.3049C27.2054 35.3049 28.5108 34.6668 29.4564 33.416C30.1708 32.4716 30.4021 31.5118 30.4021 31.5067C30.4175 31.4301 30.4946 31.3842 30.5717 31.4046C30.6488 31.4199 30.695 31.4965 30.6796 31.5731C30.6693 31.6139 30.4329 32.589 29.6877 33.5794C28.999 34.4932 27.7244 35.5857 25.5813 35.5857Z" fill="#FCF6F0"/>
<path d="M29.0453 28.2905C27.9352 29.0562 25.5042 30.1998 21.2539 29.7557C21.5571 28.3415 21.5982 27.2286 21.5828 26.5445L28.7523 26.2637C28.814 26.8661 28.9219 27.5758 29.0453 28.2905Z" fill="#3B2539"/>
<path d="M18.8435 17.2583C18.8435 17.2583 16.6233 14.2564 14.8964 16.033C13.1695 17.8096 16.4999 23.9919 19.5168 22.6442L18.8435 17.2583Z" fill="#ECB6A0"/>
<path d="M17.9235 20.8012C17.8464 20.8012 17.7848 20.7451 17.7745 20.6685C17.4815 18.5856 15.8163 17.3042 15.7958 17.294C15.729 17.2429 15.7136 17.1459 15.765 17.0796C15.8163 17.0132 15.914 16.9979 15.9808 17.0489C16.0528 17.1051 17.7642 18.4171 18.0777 20.6276C18.088 20.7093 18.0314 20.7859 17.9492 20.8012C17.9338 20.8012 17.9287 20.8012 17.9235 20.8012Z" fill="#E48888"/>
<path d="M17.4558 19.3054C17.4044 19.3054 17.3582 19.2799 17.3273 19.239C17.1063 18.9123 16.4382 18.8766 16.2018 18.8919C16.1144 18.897 16.0425 18.8357 16.0373 18.749C16.0322 18.6673 16.0939 18.5907 16.1812 18.5856C16.2224 18.5805 17.2143 18.5294 17.5792 19.0655C17.6254 19.1369 17.61 19.2288 17.5381 19.2748C17.5175 19.2952 17.4867 19.3054 17.4558 19.3054Z" fill="#E48888"/>
<path d="M18.1497 22.782C18.1086 22.7769 18.0623 22.7616 18.0212 22.7514C17.8207 22.8331 17.5792 22.8229 17.4147 22.7054C16.9008 22.3481 17.3479 21.4853 17.3531 21.4751C17.3942 21.3934 17.3633 21.2964 17.2862 21.2556C17.204 21.2147 17.1064 21.2454 17.0653 21.3219C17.0396 21.3679 16.4794 22.4451 17.2246 22.9658C17.3736 23.073 17.5638 23.1241 17.7539 23.1241C17.939 23.1241 18.1291 23.073 18.2936 22.9709C18.3604 22.9301 18.4169 22.879 18.4683 22.828C18.3604 22.8177 18.2576 22.7973 18.1497 22.782Z" fill="#FCF6F0"/>
<path d="M32.3603 17.2583C32.3603 17.2583 34.5805 14.2564 36.3073 16.033C38.0342 17.8096 34.7038 23.9919 31.687 22.6442L32.3603 17.2583Z" fill="#ECB6A0"/>
<path d="M33.2545 20.8012C33.2494 20.8012 33.2391 20.8012 33.234 20.8012C33.1517 20.791 33.0901 20.7144 33.1055 20.6276C33.4138 18.4222 35.1253 17.1051 35.2024 17.0489C35.2692 16.9979 35.3668 17.0132 35.4182 17.0796C35.4696 17.1459 35.4542 17.2429 35.3874 17.294C35.372 17.3042 33.7017 18.5907 33.4087 20.6685C33.3933 20.7451 33.3265 20.8012 33.2545 20.8012Z" fill="#E48888"/>
<path d="M33.7171 19.3054C33.6862 19.3054 33.6554 19.2952 33.6297 19.2799C33.5577 19.234 33.5423 19.137 33.5886 19.0706C33.9535 18.5345 34.9454 18.5907 34.9865 18.5907C35.0687 18.5958 35.1356 18.6673 35.1304 18.7541C35.1253 18.8358 35.0533 18.9021 34.966 18.897C34.7295 18.8817 34.0614 18.9174 33.8404 19.2442C33.8147 19.2799 33.7685 19.3054 33.7171 19.3054Z" fill="#E48888"/>
<path d="M33.0541 22.782C33.0952 22.7769 33.1414 22.7616 33.1825 22.7514C33.383 22.8331 33.6245 22.8229 33.789 22.7054C34.303 22.3481 33.8558 21.4853 33.8507 21.4751C33.8096 21.3934 33.8404 21.2964 33.9175 21.2556C33.9997 21.2147 34.0974 21.2454 34.1385 21.3219C34.1642 21.3679 34.7244 22.4451 33.9792 22.9658C33.8301 23.073 33.64 23.1241 33.4498 23.1241C33.2648 23.1241 33.0746 23.073 32.9102 22.9709C32.8433 22.9301 32.7868 22.879 32.7354 22.828C32.8433 22.8177 32.9461 22.7973 33.0541 22.782Z" fill="#FCF6F0"/>
<path d="M26.5989 8.263C20.0461 8.07411 16.9727 11.5558 17.4713 18.7541C17.7796 23.2211 20.2003 28.6581 25.5299 28.7806C31.0805 28.9082 33.6091 22.6544 33.7273 18.0342C33.8558 13.1741 32.6943 9.92217 28.6444 8.60504C28.3669 8.51315 26.9021 8.27321 26.5989 8.263Z" fill="#ECB6A0"/>
<path d="M20.8222 20.1478C20.8222 20.255 20.7348 20.3367 20.632 20.3367C20.5241 20.3367 20.4418 20.2499 20.4418 20.1478C20.4418 20.0406 20.5292 19.9589 20.632 19.9589C20.7348 19.9589 20.8222 20.0457 20.8222 20.1478Z" fill="#E48888"/>
<path d="M21.7575 20.6072C21.7575 20.7144 21.6702 20.7961 21.5674 20.7961C21.4595 20.7961 21.3772 20.7093 21.3772 20.6072C21.3772 20.5 21.4646 20.4184 21.5674 20.4184C21.6702 20.4184 21.7575 20.5 21.7575 20.6072Z" fill="#E48888"/>
<path d="M20.8222 21.2658C20.8222 21.373 20.7348 21.4547 20.632 21.4547C20.5241 21.4547 20.4418 21.3679 20.4418 21.2658C20.4418 21.1586 20.5292 21.0769 20.632 21.0769C20.7348 21.0769 20.8222 21.1586 20.8222 21.2658Z" fill="#E48888"/>
<path d="M22.2869 21.4547C22.2869 21.5619 22.1996 21.6436 22.0968 21.6436C21.9888 21.6436 21.9066 21.5568 21.9066 21.4547C21.9066 21.3475 21.994 21.2658 22.0968 21.2658C22.2047 21.2658 22.2869 21.3526 22.2869 21.4547Z" fill="#E48888"/>
<path d="M23.2634 21.2658C23.2634 21.373 23.1761 21.4547 23.0733 21.4547C22.9653 21.4547 22.8831 21.3679 22.8831 21.2658C22.8831 21.1586 22.9705 21.0769 23.0733 21.0769C23.1812 21.0769 23.2634 21.1586 23.2634 21.2658Z" fill="#E48888"/>
<path d="M22.8214 20.3367C22.8214 20.4439 22.7341 20.5256 22.6313 20.5256C22.5233 20.5256 22.4411 20.4388 22.4411 20.3367C22.4411 20.2295 22.5285 20.1478 22.6313 20.1478C22.7341 20.1478 22.8214 20.2346 22.8214 20.3367Z" fill="#E48888"/>
<path d="M30.5409 20.1478C30.5409 20.255 30.6282 20.3367 30.731 20.3367C30.839 20.3367 30.9212 20.2499 30.9212 20.1478C30.9212 20.0406 30.8338 19.9589 30.731 19.9589C30.6282 19.9589 30.5409 20.0457 30.5409 20.1478Z" fill="#E48888"/>
<path d="M29.6106 20.6072C29.6106 20.7144 29.698 20.7961 29.8008 20.7961C29.9087 20.7961 29.991 20.7093 29.991 20.6072C29.991 20.5 29.9036 20.4184 29.8008 20.4184C29.698 20.4184 29.6106 20.5 29.6106 20.6072Z" fill="#E48888"/>
<path d="M30.5409 21.2658C30.5409 21.373 30.6282 21.4547 30.731 21.4547C30.839 21.4547 30.9212 21.3679 30.9212 21.2658C30.9212 21.1586 30.8338 21.0769 30.731 21.0769C30.6282 21.0769 30.5409 21.1586 30.5409 21.2658Z" fill="#E48888"/>
<path d="M29.0761 21.4547C29.0761 21.5619 29.1635 21.6436 29.2663 21.6436C29.3742 21.6436 29.4565 21.5568 29.4565 21.4547C29.4565 21.3475 29.3691 21.2658 29.2663 21.2658C29.1635 21.2658 29.0761 21.3526 29.0761 21.4547Z" fill="#E48888"/>
<path d="M28.0996 21.2658C28.0996 21.373 28.187 21.4547 28.2898 21.4547C28.3977 21.4547 28.4799 21.3679 28.4799 21.2658C28.4799 21.1586 28.3926 21.0769 28.2898 21.0769C28.187 21.0769 28.0996 21.1586 28.0996 21.2658Z" fill="#E48888"/>
<path d="M28.5468 20.3367C28.5468 20.4439 28.6342 20.5256 28.7369 20.5256C28.8449 20.5256 28.9271 20.4388 28.9271 20.3367C28.9271 20.2295 28.8397 20.1478 28.7369 20.1478C28.629 20.1478 28.5468 20.2346 28.5468 20.3367Z" fill="#E48888"/>
<path d="M17.7334 20.0304C17.7334 20.0304 19.0439 17.2787 18.6071 15.252L17.1732 14.8384C17.1732 14.8384 16.9573 18.315 17.7334 20.0304Z" fill="#3B2539"/>
<path d="M33.4549 20.0304C33.4549 20.0304 32.1444 17.2787 32.5812 15.252L34.0151 14.8384C34.0151 14.8384 34.231 18.315 33.4549 20.0304Z" fill="#3B2539"/>
<path d="M18.8178 6.48641C17.2297 8.04859 15.9911 10.6012 15.9037 12.1633C15.8215 13.7408 16.2275 15.3132 17.4198 15.9156C21.1511 17.7994 28.8654 10.7135 28.8654 10.7135C28.8654 10.7135 31.5842 16.2117 33.7325 15.9514C35.8756 15.691 36.7904 9.49334 31.687 6.02695C26.5886 2.56566 21.2539 4.0921 18.8178 6.48641Z" fill="#3B2539"/>
<path d="M20.154 16.7478C20.154 16.7478 20.5087 15.8748 21.7113 15.1294C23.2326 14.1901 24.3273 15.8084 24.3273 15.8084C24.3273 15.8084 23.1349 15.3949 22.2201 15.6859C21.3258 15.9667 20.154 16.7478 20.154 16.7478Z" fill="#3B2539"/>
<path d="M31.358 16.7478C31.358 16.7478 31.0034 15.8748 29.8008 15.1294C28.2795 14.1901 27.1848 15.8084 27.1848 15.8084C27.1848 15.8084 28.3772 15.3949 29.292 15.6859C30.1862 15.9667 31.358 16.7478 31.358 16.7478Z" fill="#3B2539"/>
<path d="M25.9719 22.537C25.7098 22.537 25.422 22.4706 25.1033 22.3328C25.016 22.297 24.9646 22.2051 24.9748 22.1132L25.4168 18.7285C25.4323 18.6111 25.5402 18.5294 25.6533 18.5448C25.7715 18.5601 25.8537 18.6673 25.8383 18.7796L25.4168 22.006C25.8588 22.1694 26.198 22.1541 26.4756 21.9652C26.5732 21.8988 26.7068 21.9244 26.7685 22.0214C26.8353 22.1184 26.8096 22.2511 26.712 22.3123C26.4961 22.4604 26.2494 22.537 25.9719 22.537Z" fill="#E48888"/>
<path d="M25.5556 24.773C25.3706 24.773 25.1907 24.7628 25.0314 24.7424C24.06 24.6301 23.3816 24.2625 23.3559 24.2421C23.2531 24.1859 23.2172 24.0583 23.2737 23.9562C23.3302 23.8541 23.4587 23.8184 23.5615 23.8745C23.6643 23.9307 26.0901 25.2325 28.1921 23.3027C28.2795 23.2211 28.4131 23.2313 28.4902 23.313C28.5673 23.3997 28.5622 23.5325 28.4799 23.6091C27.4778 24.5331 26.4036 24.773 25.5556 24.773Z" fill="#E48888"/>
<path d="M25.9256 26.0085C25.4323 26.0085 25.0365 25.8911 25.0108 25.8809C24.8977 25.8451 24.8361 25.7277 24.8721 25.6154C24.908 25.5031 25.0262 25.4418 25.1393 25.4776C25.1547 25.4827 26.1209 25.7737 26.8045 25.3857C26.9073 25.3295 27.0358 25.3652 27.0923 25.4673C27.1488 25.5694 27.1129 25.6971 27.0101 25.7532C26.6606 25.9523 26.27 26.0085 25.9256 26.0085Z" fill="#E48888"/>
<path d="M23.063 18.0241C23.0732 18.6111 22.8523 19.0961 22.5747 19.1012C22.2972 19.1063 22.0608 18.6316 22.0505 18.0445C22.0402 17.4574 22.2612 16.9724 22.5387 16.9724C22.8163 16.9622 23.0527 17.4319 23.063 18.0241Z" fill="#3B2539"/>
<path d="M28.3566 18.0241C28.3463 18.6111 28.5673 19.0961 28.8449 19.1012C29.1224 19.1063 29.3588 18.6316 29.3691 18.0445C29.3794 17.4574 29.1584 16.9724 28.8808 16.9724C28.6033 16.9622 28.3669 17.4319 28.3566 18.0241Z" fill="#3B2539"/>
</svg>
