<svg width="20" height="20" viewBox="0 0 20 20" fill="none" xmlns="http://www.w3.org/2000/svg">
<g clip-path="url(#clip0)">
<path d="M18.3377 15.1296L15.1534 13.5376C14.8531 13.3873 14.6664 13.0853 14.6664 12.7493V11.6223C14.7428 11.529 14.8231 11.4226 14.9061 11.3053C15.3191 10.722 15.6501 10.0726 15.8907 9.37231C16.3611 9.15665 16.6664 8.69165 16.6664 8.16665V6.83331C16.6664 6.51231 16.5464 6.20131 16.3331 5.95831V4.18531C16.3517 4.00198 16.4251 2.91065 15.6357 2.01031C14.9511 1.22931 13.8401 0.833313 12.3331 0.833313C10.8262 0.833313 9.71518 1.22931 9.03052 2.00998C8.2412 2.91031 8.31454 4.00198 8.3332 4.18498V5.95798C8.11987 6.20098 7.99988 6.51198 7.99988 6.83298V8.16631C7.99988 8.57198 8.18421 8.95031 8.49887 9.20265C8.80419 10.4116 9.44318 11.3226 9.66651 11.615V12.718C9.66651 13.0406 9.49052 13.3366 9.20752 13.4913L6.2339 15.1133C5.26725 15.6406 4.66693 16.652 4.66693 17.7533V19.1666H20V17.819C19.9997 16.673 19.3627 15.6423 18.3377 15.1296Z" fill="#EF8BBD"/>
<path d="M5.99423 14.675L8.96785 13.053C9.09018 12.986 9.16651 12.8576 9.16651 12.7183V11.7803C8.87152 11.3696 8.35119 10.543 8.0542 9.47696C7.69987 9.13296 7.49988 8.66463 7.49988 8.16663V6.83329C7.49988 6.45863 7.61721 6.09363 7.8332 5.78629V4.20863C7.82187 4.08096 7.80854 3.78563 7.8652 3.41029C7.40621 3.25029 6.89555 3.16663 6.33323 3.16663C2.87029 3.16663 2.66862 6.11829 2.66662 6.16663V7.69296C2.45063 7.92829 2.33329 8.19996 2.33329 8.46963V9.62096C2.33329 9.98063 2.49429 10.316 2.77029 10.5426C3.04528 11.5793 3.7216 12.3626 3.98493 12.6376V13.552C3.98493 13.8143 3.84227 14.055 3.59461 14.1903L1.37698 15.5813C0.527658 16.0446 0 16.9336 0 17.901V19.1666H4.1666V17.754C4.1666 16.4696 4.86692 15.29 5.99423 14.675Z" fill="#EF8BBD"/>
</g>
<defs>
<clipPath id="clip0">
<rect width="20" height="20" fill="white"/>
</clipPath>
</defs>
</svg>
